<svg width="24" height="24" viewBox="0 0 24 24" fill="none" xmlns="http://www.w3.org/2000/svg">
<path d="M2.91083 13.2115L0.207094 15.1731C-0.0230122 15.4038 -0.0613613 15.6731 0.0920429 15.9808L2.56567 20.0769C2.71908 20.3846 2.94918 20.4808 3.25599 20.3654L6.36242 19.1538C7.32119 19.8077 8.0115 20.2115 8.43336 20.3654L8.89357 23.5385C8.97028 23.8462 9.18121 24 9.52637 24H14.4161C14.7613 24 14.9722 23.8462 15.0489 23.5385L15.5091 20.3654C16.0844 20.1346 16.7747 19.7308 17.5801 19.1538L20.6865 20.3654C20.9933 20.5192 21.2234 20.4231 21.3768 20.0769L23.8504 15.9808C24.0422 15.6346 24.0038 15.3654 23.7354 15.1731L21.1467 13.2115C21.1467 13.0962 21.1563 12.9038 21.1755 12.6346C21.1946 12.3654 21.2042 12.1538 21.2042 12C21.2042 11.8462 21.1946 11.6346 21.1755 11.3654C21.1563 11.0962 21.1467 10.9038 21.1467 10.7885L23.7929 8.82692C24.023 8.59615 24.0614 8.32692 23.908 8.01923L21.4343 3.92308C21.2809 3.61538 21.0508 3.51923 20.744 3.63462L17.6376 4.84615C16.6788 4.1923 15.9885 3.78846 15.5666 3.63462L15.1064 0.461538C15.0297 0.153845 14.8188 0 14.4736 0H9.58389C9.23873 0 9.0278 0.153845 8.9511 0.461538L8.54842 3.63462C7.97315 3.86539 7.28284 4.26923 6.47747 4.84615L3.42857 3.63462C3.12176 3.48077 2.87248 3.57692 2.68073 3.92308L0.207094 8.01923C0.0153389 8.36539 0.05369 8.63461 0.322147 8.82692L2.91083 10.7885C2.91083 10.9038 2.90125 11.0962 2.88207 11.3654C2.86289 11.6346 2.85331 11.8462 2.85331 12C2.85331 12.5769 2.87248 12.9808 2.91083 13.2115ZM15.1064 15C14.2627 15.8077 13.2464 16.2115 12.0575 16.2115C10.8686 16.2115 9.85235 15.8077 9.00863 15C8.1649 14.1923 7.74305 13.1923 7.74305 12C7.74305 10.8077 8.1649 9.8077 9.00863 9C9.85235 8.1923 10.8686 7.78846 12.0575 7.78846C13.2464 7.78846 14.2531 8.1923 15.0777 9C15.9022 9.8077 16.3145 10.8077 16.3145 12C16.3145 13.1923 15.9118 14.1923 15.1064 15Z" fill="#0D0D0D"/>
</svg>
