<svg width="19" height="15" viewBox="0 0 19 15" fill="none" xmlns="http://www.w3.org/2000/svg">
<path d="M0.5 7.5C0.5 7.18377 0.614002 6.91975 0.842009 6.70794C1.07002 6.49612 1.34643 6.39021 1.67126 6.39021H14.0023L9.34539 1.91527C9.10802 1.69451 8.98933 1.429 8.98933 1.11873C8.98933 0.808471 9.10802 0.548927 9.34539 0.340095C9.57028 0.113364 9.84045 0 10.1559 0C10.4714 0 10.754 0.113364 11.0039 0.340095L18.5 7.5L11.0039 14.6599C10.7478 14.8866 10.4667 15 10.1606 15C9.8545 15 9.58277 14.8866 9.34539 14.6599C9.10802 14.4332 8.98933 14.1662 8.98933 13.8589C8.98933 13.5516 9.10802 13.2906 9.34539 13.0758L14.0023 8.62768H1.67126C1.34643 8.62768 1.07002 8.5173 0.842009 8.29654C0.614002 8.07577 0.5 7.81026 0.5 7.5Z" fill="black"/>
</svg>
