<svg width="45" height="38" viewBox="0 0 45 38" fill="none" xmlns="http://www.w3.org/2000/svg">
<path d="M45 19C45 18.1989 44.715 17.53 44.145 16.9934C43.575 16.4568 42.8839 16.1885 42.0718 16.1885H11.2441L22.8865 4.85203C23.48 4.29276 23.7767 3.62013 23.7767 2.83413C23.7767 2.04813 23.48 1.39062 22.8865 0.861575C22.3243 0.287189 21.6489 0 20.8602 0C20.0716 0 19.3649 0.287189 18.7402 0.861575L3.8147e-06 19L18.7402 37.1384C19.3805 37.7128 20.0833 38 20.8485 38C21.6137 38 22.2931 37.7128 22.8865 37.1384C23.48 36.564 23.7767 35.8876 23.7767 35.1092C23.7767 34.3307 23.48 33.6695 22.8865 33.1253L11.2441 21.8568H42.0718C42.8839 21.8568 43.575 21.5772 44.145 21.0179C44.715 20.4586 45 19.786 45 19Z" fill="black"/>
</svg>
