<svg width="24" height="25" viewBox="0 0 24 25" fill="none" xmlns="http://www.w3.org/2000/svg">
<path fill-rule="evenodd" clip-rule="evenodd" d="M15.5666 3.63462C15.8199 3.72699 16.17 3.90949 16.6169 4.18212L12.9317 7.86728C12.6522 7.81474 12.3608 7.78846 12.0575 7.78846C10.8686 7.78846 9.85235 8.1923 9.00863 9C8.1649 9.8077 7.74305 10.8077 7.74305 12C7.74305 12.334 7.77615 12.6529 7.84234 12.9566L1.87153 18.9275L0.0920429 15.9808C-0.0613616 15.6731 -0.023011 15.4038 0.207096 15.1731L2.91083 13.2115C2.87248 12.9808 2.85331 12.5769 2.85331 12C2.85331 11.8462 2.86289 11.6346 2.88207 11.3654C2.90125 11.0962 2.91083 10.9038 2.91083 10.7885L0.322148 8.82692C0.0536907 8.63461 0.0153401 8.36539 0.207096 8.01923L2.68073 3.92308C2.87248 3.57692 3.12176 3.48077 3.42857 3.63462L6.47747 4.84615C7.28284 4.26923 7.97315 3.86539 8.54842 3.63462L8.9511 0.461538C9.0278 0.153845 9.23873 0 9.58389 0H14.4736C14.8188 0 15.0297 0.153845 15.1064 0.461538L15.5666 3.63462ZM14.8426 8.78485L19.5125 4.11492L22.2132 1.41422L23.6274 2.82843L21.8479 4.60794L23.908 8.01923C24.0614 8.32692 24.023 8.59615 23.7929 8.82692L21.1467 10.7885C21.1467 10.9038 21.1563 11.0962 21.1755 11.3654C21.1946 11.6346 21.2042 11.8462 21.2042 12C21.2042 12.1538 21.1946 12.3654 21.1755 12.6346C21.1563 12.9038 21.1467 13.0962 21.1467 13.2115L23.7354 15.1731C24.0038 15.3654 24.0422 15.6346 23.8504 15.9808L21.3768 20.0769C21.2234 20.4231 20.9933 20.5192 20.6865 20.3654L17.5801 19.1538C16.7747 19.7308 16.0844 20.1346 15.5091 20.3654L15.0489 23.5385C14.9722 23.8462 14.7613 24 14.4161 24H9.52637C9.18121 24 8.97028 23.8462 8.89357 23.5385L8.43336 20.3654C8.09931 20.2436 7.59693 19.965 6.92621 19.5296L2.41421 24.0416L1 22.6274L3.26589 20.3615L8.81939 14.808L14.8426 8.78485ZM16.0324 10.4234L10.5075 15.9483C10.9867 16.1238 11.5034 16.2115 12.0575 16.2115C13.2464 16.2115 14.2627 15.8077 15.1064 15C15.9118 14.1923 16.3145 13.1923 16.3145 12C16.3145 11.4306 16.2205 10.9051 16.0324 10.4234Z" fill="#0D0D0D"/>
</svg>
