<svg width="54" height="33" viewBox="0 0 54 33" fill="none" xmlns="http://www.w3.org/2000/svg">
<path d="M15 25.2L2.99999 30" stroke="#0D0D0D" stroke-width="0.5"/>
<path d="M15 16.2L2.99999 21" stroke="#0D0D0D" stroke-width="0.5"/>
<path d="M15 7.20007L2.99999 12.0001" stroke="#0D0D0D" stroke-width="0.5"/>
<path d="M15 7.20007L2.99999 3.00007" stroke="#0D0D0D" stroke-width="0.5"/>
<path d="M15 16.2L2.99999 12" stroke="#0D0D0D" stroke-width="0.5"/>
<path d="M15 25.2L2.99999 21" stroke="#0D0D0D" stroke-width="0.5"/>
<path d="M39 21.0001H51" stroke="#0D0D0D" stroke-width="0.5"/>
<path d="M50.9998 21.0001L38.9997 30.0001" stroke="#0D0D0D" stroke-width="0.5"/>
<path d="M50.9998 12L38.9997 21" stroke="#0D0D0D" stroke-width="0.5"/>
<path d="M50.9998 12L38.9997 30" stroke="#0D0D0D" stroke-width="0.5"/>
<path d="M50.9998 12L38.9997 12" stroke="#0D0D0D" stroke-width="0.5"/>
<path d="M50.9998 12L38.9997 2.99999" stroke="#0D0D0D" stroke-width="0.5"/>
<path d="M50.9998 21.0001L38.9997 12.0001" stroke="#0D0D0D" stroke-width="0.5"/>
<path d="M50.9998 21.0001L38.9997 3.00011" stroke="#0D0D0D" stroke-width="0.5"/>
<path d="M27 21.6001L15 25.8001" stroke="#0D0D0D" stroke-width="0.5"/>
<path d="M27 12.6L15 16.8" stroke="#0D0D0D" stroke-width="0.5"/>
<path d="M27 21.6001L15 16.8001" stroke="#0D0D0D" stroke-width="0.5"/>
<path d="M27 12.6L15 7.80003" stroke="#0D0D0D" stroke-width="0.5"/>
<path d="M39 12H27" stroke="#0D0D0D" stroke-width="0.5"/>
<path d="M27 12L39 2.99999" stroke="#0D0D0D" stroke-width="0.5"/>
<path d="M27 21.0001L39 12.0001" stroke="#0D0D0D" stroke-width="0.5"/>
<path d="M27 21.0001L39 3.00011" stroke="#0D0D0D" stroke-width="0.5"/>
<path d="M27 21.0001L39 21.0001" stroke="#0D0D0D" stroke-width="0.5"/>
<path d="M27 21.0001L39 30.0001" stroke="#0D0D0D" stroke-width="0.5"/>
<path d="M27 12L39 21" stroke="#0D0D0D" stroke-width="0.5"/>
<path d="M27 12L39 30" stroke="#0D0D0D" stroke-width="0.5"/>
<rect x="12" y="4.19995" width="6" height="6" fill="black"/>
<rect x="12" y="13.2" width="6" height="6" fill="black"/>
<rect x="12" y="22.2001" width="6" height="6" fill="black"/>
<circle cx="39.0002" cy="3" r="3" fill="black"/>
<circle cx="39.0002" cy="12.0001" r="3" fill="black"/>
<circle cx="51" cy="12.0001" r="3" fill="black"/>
<circle cx="39.0002" cy="21" r="3" fill="black"/>
<circle cx="51" cy="21" r="3" fill="black"/>
<circle cx="39.0002" cy="30" r="3" fill="black"/>
<circle cx="3" cy="3" r="3" fill="black"/>
<circle cx="3" cy="12.0001" r="3" fill="black"/>
<circle cx="3" cy="21" r="3" fill="black"/>
<circle cx="3" cy="30" r="3" fill="black"/>
<rect x="23.9998" y="9.60004" width="6" height="6" fill="black"/>
<rect x="23.9998" y="18.6" width="6" height="6" fill="black"/>
</svg>
