<svg width="410" height="190" viewBox="0 0 410 190" fill="none" xmlns="http://www.w3.org/2000/svg">
<mask id="mask0" mask-type="alpha" maskUnits="userSpaceOnUse" x="0" y="0" width="410" height="190">
<rect width="410" height="190" fill="#F2F2F2"/>
</mask>
<g mask="url(#mask0)">
<rect width="410" height="190" fill="#F7F7F7"/>
<mask id="mask1" mask-type="alpha" maskUnits="userSpaceOnUse" x="20" y="0" width="370" height="190">
<rect x="20" width="370" height="190" fill="#F7F7F7"/>
</mask>
<g mask="url(#mask1)">
<path d="M225 134.5L231.5 114L201 108.5" stroke="black" stroke-width="1.5" stroke-linecap="round" stroke-linejoin="round"/>
<path d="M204.5 131L200 107.5L225.5 135" stroke="black" stroke-width="1.5" stroke-linecap="round" stroke-linejoin="round"/>
<path d="M210.5 78.5L200.5 107.5L246.5 93L210.5 78.5Z" stroke="black" stroke-width="1.5" stroke-linecap="round" stroke-linejoin="round"/>
<path d="M247 93L231 114L250 130" stroke="black" stroke-width="1.5" stroke-linecap="round" stroke-linejoin="round"/>
<path d="M261.5 108.5L246 93L250.5 130.5" stroke="black" stroke-width="1.5" stroke-linecap="round" stroke-linejoin="round"/>
<path d="M246 93.5L259 79.5L262.5 108.5" stroke="black" stroke-width="1.5" stroke-linecap="round" stroke-linejoin="round"/>
<path d="M259 79L284.5 100.5L277.5 79H296.5" stroke="black" stroke-width="1.5" stroke-linecap="round" stroke-linejoin="round"/>
<path d="M259 79.5H277L290.5 60.5" stroke="black" stroke-width="1.5" stroke-linecap="round" stroke-linejoin="round"/>
<path d="M261.5 32L254 62.5L291 60" stroke="black" stroke-width="1.5" stroke-linecap="round" stroke-linejoin="round"/>
<path d="M278 79.5L254 62L259 79.5" stroke="black" stroke-width="1.5" stroke-linecap="round" stroke-linejoin="round"/>
<path d="M224.5 25.5L243.5 39.5L261.5 30.5" stroke="black" stroke-width="1.5" stroke-linecap="round" stroke-linejoin="round"/>
<path d="M244 39L254 61M254 61L246.5 93.5L228 64L254 61Z" stroke="black" stroke-width="1.5" stroke-linecap="round" stroke-linejoin="round"/>
<path d="M224.5 25.5L216.5 46L243 39.5L228 64.5" stroke="black" stroke-width="1.5" stroke-linecap="round" stroke-linejoin="round"/>
<path d="M217 45.5L228 63.5L210 78.5L217 45.5ZM217 45.5L202.5 29L190 43L174 32.5" stroke="black" stroke-width="1.5" stroke-linecap="round" stroke-linejoin="round"/>
<path d="M216.5 45.5L189.5 42.5L210 77.5L179.5 74L200 107L179.5 129L204 131.5" stroke="black" stroke-width="1.5" stroke-linecap="round" stroke-linejoin="round"/>
<path d="M179 129L200 152H179M179 129L164 134.5M179 129V152M179 129L149 115.5M179 129L172 105.5L200 107.5M179 152L164 134.5M179 152L192 164.5M164 134.5L156 152M164 134.5L137 142.5L149 115.5M164 134.5L149 115.5M126.5 129L149 115.5M114 115.5L134 103M134 103L114 94.5L137 88L134 103Z" stroke="black" stroke-width="1.5" stroke-linecap="round" stroke-linejoin="round"/>
<path d="M127 128.5L134 103L149 115.5L172 105.5" stroke="black" stroke-width="1.5" stroke-linecap="round" stroke-linejoin="round"/>
<path d="M147.5 68.5L137 88L126 78.5L147.5 68.5ZM147.5 68.5L137 50.5M147.5 68.5L156.5 42L176.5 50.5M147.5 68.5L176.5 50.5M147.5 68.5L179.5 73.5M147.5 68.5L159.5 83.5M174 33.5L176.5 50.5M176.5 50.5L190 42.5L179.5 73.5M176.5 50.5L179.5 73.5M179.5 73.5L172 105.5L159.5 83.5M179.5 73.5L159.5 83.5" stroke="black" stroke-width="1.5" stroke-linecap="round" stroke-linejoin="round"/>
<path d="M137.5 88L159.5 83.5L149 115.5L137.5 88Z" stroke="black" stroke-width="1.5" stroke-linecap="round" stroke-linejoin="round"/>
<path d="M155.5 153H179V164.5H191.5L200 153L204.5 131.5L224.5 135L249.5 131.5L261 108.5H269.5L284 101.5L296.5 78.5L291 60L261 30.5L224.5 25L173 33.5L137.5 50.5L126 78.5L114.5 95V115.5L126 128.5L137.5 144L155.5 153Z" stroke="#FFEF58" stroke-width="8"/>
<path d="M155.5 153H179V164.5H191.5L200 153L204.5 131.5L224.5 135L249.5 131.5L261 108.5H269.5L284 101.5L296.5 78.5L291 60L261 30.5L224.5 25L173 33.5L137.5 50.5L126 78.5L114.5 95V115.5L126 128.5L137.5 144L155.5 153Z" stroke="black" stroke-width="3"/>
<path d="M414 119.5H378.5C376.843 119.5 375.5 120.843 375.5 122.5V131.5C375.5 133.157 374.157 134.5 372.5 134.5H352C350.343 134.5 349 133.157 349 131.5V113C349 111.343 347.657 110 346 110H330.25C328.593 110 327.25 111.343 327.25 113V117.5C327.25 119.157 325.907 120.5 324.25 120.5H290" stroke="black" stroke-width="2"/>
<circle cx="292" cy="120.5" r="4" fill="#F2F2F2" stroke="black" stroke-width="2"/>
<path d="M-15.5 65.5H15C16.6569 65.5 18 64.1569 18 62.5V58.5C18 56.8431 19.3431 55.5 21 55.5H46.5C48.1569 55.5 49.5 56.8431 49.5 58.5V72C49.5 73.6569 50.8431 75 52.5 75H68.25C69.9069 75 71.25 73.6569 71.25 72V67.5C71.25 65.8431 72.5931 64.5 74.25 64.5H108.5" stroke="black" stroke-width="2"/>
<circle cx="106.5" cy="64.5" r="4" transform="rotate(-180 106.5 64.5)" fill="#F2F2F2" stroke="black" stroke-width="2"/>
<path d="M418.5 174H330C328.895 174 328 173.105 328 172V153C328 151.895 327.105 151 326 151H300.5C299.395 151 298.5 151.895 298.5 153V161C298.5 162.105 297.605 163 296.5 163H257.828C257.298 163 256.789 162.789 256.414 162.414L242 148" stroke="black" stroke-width="2" stroke-linecap="round"/>
<circle cx="242" cy="148" r="4" fill="#F2F2F2" stroke="black" stroke-width="2"/>
<path d="M137 32L124.586 19.5858C124.211 19.2107 123.702 19 123.172 19H90.5C89.3954 19 88.5 19.8954 88.5 21V25C88.5 26.1046 87.6096 27 86.5051 27C73.8994 27 5.2426 27 -13 27" stroke="black" stroke-width="2" stroke-linecap="round"/>
<circle cx="137" cy="32" r="4" transform="rotate(-180 137 32)" fill="#F2F2F2" stroke="black" stroke-width="2"/>
<path d="M414 27.5H367.5C365.843 27.5 364.5 28.8431 364.5 30.5V45C364.5 46.6569 363.157 48 361.5 48H327.743C326.947 48 326.184 47.6839 325.621 47.1213L310.379 31.8787C309.816 31.3161 309.053 31 308.257 31H289.5" stroke="black" stroke-width="2"/>
<circle cx="289" cy="31" r="4" fill="#F2F2F2" stroke="black" stroke-width="2"/>
<path d="M-11.5 167.5H35C36.6569 167.5 38 166.157 38 164.5V140C38 138.343 39.3431 137 41 137H74.7574C75.553 137 76.3161 137.316 76.8787 137.879L92.1213 153.121C92.6839 153.684 93.447 154 94.2426 154H113" stroke="black" stroke-width="2"/>
<circle cx="113.5" cy="154" r="4" transform="rotate(-180 113.5 154)" fill="#F2F2F2" stroke="black" stroke-width="2"/>
<path d="M415.5 69H384.743C383.947 69 383.184 69.3161 382.621 69.8787L372.379 80.1213C371.816 80.6839 371.053 81 370.257 81H317.5" stroke="black" stroke-width="2"/>
<circle cx="315" cy="81" r="4" fill="#F2F2F2" stroke="black" stroke-width="2"/>
<path d="M-7 116H23.7574C24.553 116 25.3161 115.684 25.8787 115.121L36.1213 104.879C36.6839 104.316 37.447 104 38.2426 104H91" stroke="black" stroke-width="2"/>
<circle cx="93.5" cy="104" r="4" transform="rotate(-180 93.5 104)" fill="#F2F2F2" stroke="black" stroke-width="2"/>
</g>
</g>
</svg>
