<svg width="410" height="190" viewBox="0 0 410 190" fill="none" xmlns="http://www.w3.org/2000/svg">
<mask id="mask0" mask-type="alpha" maskUnits="userSpaceOnUse" x="0" y="0" width="410" height="190">
<rect width="410" height="190" fill="#F2F2F2"/>
</mask>
<g mask="url(#mask0)">
<rect width="410" height="190" fill="#F7F7F7"/>
<path d="M248.077 46.6155L291.154 78.9232" stroke="black" stroke-width="2"/>
<path d="M248.077 111.231L291.154 143.538" stroke="black" stroke-width="2"/>
<path d="M291.154 46.6155L248.077 78.9232" stroke="black" stroke-width="2"/>
<path d="M291.154 78.9231L248.077 111.231" stroke="black" stroke-width="2"/>
<path d="M291.154 111.231L248.077 143.538" stroke="black" stroke-width="2"/>
<path d="M248.077 78.9231H291.154" stroke="black" stroke-width="2"/>
<path d="M248.077 46.6155H291.154" stroke="black" stroke-width="2"/>
<path d="M248.077 111.231H291.154" stroke="black" stroke-width="2"/>
<path d="M248.077 143.539H291.154" stroke="black" stroke-width="2"/>
<path d="M334.231 111.231L291.154 143.538" stroke="black" stroke-width="2"/>
<path d="M334.231 78.9231L291.154 111.231" stroke="black" stroke-width="2"/>
<path d="M334.231 78.9231L291.154 143.539" stroke="black" stroke-width="2"/>
<path d="M334.231 78.9231L291.154 78.9231" stroke="black" stroke-width="2"/>
<path d="M334.231 78.9231L291.154 46.6154" stroke="black" stroke-width="2"/>
<path d="M334.231 111.231L291.154 78.923" stroke="black" stroke-width="2"/>
<path d="M334.231 111.231L291.154 46.6153" stroke="black" stroke-width="2"/>
<path d="M248.077 78.9231H205" stroke="black" stroke-width="2"/>
<path d="M205 78.9231L248.077 46.6154" stroke="black" stroke-width="2"/>
<path d="M205 111.231L248.077 46.6153" stroke="black" stroke-width="2"/>
<path d="M205 111.231L248.077 111.231" stroke="black" stroke-width="2"/>
<path d="M205 111.231L248.077 143.538" stroke="black" stroke-width="2"/>
<path d="M205 78.9231L248.077 111.231" stroke="black" stroke-width="2"/>
<path d="M205 78.9231L248.077 143.539" stroke="black" stroke-width="2"/>
<path d="M75.7693 46.6155L118.846 78.9232" stroke="black" stroke-width="2"/>
<path d="M75.7693 78.9231L118.846 111.231" stroke="black" stroke-width="2"/>
<path d="M75.7693 111.231L118.846 143.538" stroke="black" stroke-width="2"/>
<path d="M118.846 46.6155L75.7692 78.9232" stroke="black" stroke-width="2"/>
<path d="M118.846 78.9231L75.7692 111.231" stroke="black" stroke-width="2"/>
<path d="M118.846 111.231L75.7692 143.538" stroke="black" stroke-width="2"/>
<path d="M161.923 126.308L118.846 143.538" stroke="black" stroke-width="2"/>
<path d="M205 111.231L161.923 126.308" stroke="black" stroke-width="2"/>
<path d="M205 78.9231L161.923 94" stroke="black" stroke-width="2"/>
<path d="M205 78.9231L161.923 61.6923" stroke="black" stroke-width="2"/>
<path d="M161.923 61.6924L118.846 78.9232" stroke="black" stroke-width="2"/>
<path d="M161.923 61.6924L118.846 46.6155" stroke="black" stroke-width="2"/>
<path d="M161.923 94L118.846 78.9231" stroke="black" stroke-width="2"/>
<path d="M161.923 126.308L118.846 111.231" stroke="black" stroke-width="2"/>
<path d="M75.7693 78.9231H118.846" stroke="black" stroke-width="2"/>
<path d="M75.7693 46.6155H118.846" stroke="black" stroke-width="2"/>
<path d="M75.7693 143.539H118.846" stroke="black" stroke-width="2"/>
<path d="M248.077 78.9231L291.154 111.231" stroke="#FFEF58" stroke-width="8"/>
<path d="M291.154 111.231H334.231" stroke="#FFEF58" stroke-width="8"/>
<path d="M205 111.231L248.077 78.923" stroke="#FFEF58" stroke-width="8"/>
<path d="M205 111.231L161.923 93.9999" stroke="#FFEF58" stroke-width="8"/>
<path d="M161.923 94L118.846 111.231" stroke="#FFEF58" stroke-width="8"/>
<path d="M75.7693 111.231H118.846" stroke="#FFEF58" stroke-width="8"/>
<circle cx="248.077" cy="78.923" r="8.76924" fill="black" stroke="#FFEF58" stroke-width="4"/>
<circle cx="291.154" cy="111.231" r="8.76924" fill="black" stroke="#FFEF58" stroke-width="4"/>
<circle cx="334.231" cy="111.231" r="8.76924" fill="black" stroke="#FFEF58" stroke-width="4"/>
<circle cx="75.7692" cy="111.231" r="8.76924" fill="black" stroke="#FFEF58" stroke-width="4"/>
<rect x="110.077" y="102.462" width="17.5385" height="17.5385" fill="black" stroke="#FFEF58" stroke-width="4"/>
<rect x="153.154" y="85.2307" width="17.5385" height="17.5385" fill="black" stroke="#FFEF58" stroke-width="4"/>
<rect x="196.231" y="102.462" width="17.5385" height="17.5385" fill="black" stroke="#FFEF58" stroke-width="4"/>
<path d="M248.077 78.9231L291.154 111.231" stroke="black" stroke-width="3"/>
<path d="M291.154 111.231H334.231" stroke="black" stroke-width="3"/>
<path d="M205 111.231L248.077 78.923" stroke="black" stroke-width="3"/>
<path d="M205 111.231L161.923 93.9999" stroke="black" stroke-width="3"/>
<path d="M161.923 94L118.846 111.231" stroke="black" stroke-width="3"/>
<path d="M75.7693 111.231H118.846" stroke="black" stroke-width="3"/>
<circle cx="248.077" cy="46.6154" r="8.61539" fill="black"/>
<circle cx="291.154" cy="46.6154" r="8.61539" fill="black"/>
<circle cx="291.154" cy="78.923" r="8.61539" fill="black"/>
<circle cx="334.231" cy="78.923" r="8.61539" fill="black"/>
<circle cx="248.077" cy="111.231" r="8.61539" fill="black"/>
<circle cx="248.077" cy="143.538" r="8.61539" fill="black"/>
<circle cx="291.154" cy="143.538" r="8.61539" fill="black"/>
<circle cx="75.7692" cy="46.6154" r="8.61539" fill="black"/>
<circle cx="75.7692" cy="78.923" r="8.61539" fill="black"/>
<circle cx="75.7692" cy="143.538" r="8.61539" fill="black"/>
<rect x="110.231" y="38" width="17.2308" height="17.2308" fill="black"/>
<rect x="110.231" y="70.3076" width="17.2308" height="17.2308" fill="black"/>
<rect x="153.308" y="53.0769" width="17.2308" height="17.2308" fill="black"/>
<rect x="196.385" y="70.3076" width="17.2308" height="17.2308" fill="black"/>
<rect x="110.231" y="134.923" width="17.2308" height="17.2308" fill="black"/>
<rect x="153.308" y="117.692" width="17.2308" height="17.2308" fill="black"/>
</g>
</svg>
