<svg width="14" height="34" viewBox="0 0 14 34" fill="none" xmlns="http://www.w3.org/2000/svg">
<path d="M14 29.3636V32.4545C14 32.8731 13.8615 33.2353 13.5844 33.5412C13.3073 33.8471 12.9792 34 12.6 34H1.4C1.02083 34 0.69271 33.8471 0.415625 33.5412C0.13854 33.2353 0 32.8731 0 32.4545V29.3636C0 28.9451 0.13854 28.5829 0.415625 28.277C0.69271 27.9711 1.02083 27.8182 1.4 27.8182H2.8V18.5455H1.4C1.02083 18.5455 0.69271 18.3925 0.415625 18.0866C0.13854 17.7808 0 17.4186 0 17V13.9091C0 13.4905 0.13854 13.1283 0.415625 12.8224C0.69271 12.5166 1.02083 12.3636 1.4 12.3636H9.8C10.1792 12.3636 10.5073 12.5166 10.7844 12.8224C11.0615 13.1283 11.2 13.4905 11.2 13.9091V27.8182H12.6C12.9792 27.8182 13.3073 27.9711 13.5844 28.277C13.8615 28.5829 14 28.9451 14 29.3636ZM11.2 1.54545V6.18182C11.2 6.60038 11.0615 6.96259 10.7844 7.26847C10.5073 7.57434 10.1792 7.72727 9.8 7.72727H4.2C3.82083 7.72727 3.49271 7.57434 3.21563 7.26847C2.93854 6.96259 2.8 6.60038 2.8 6.18182V1.54545C2.8 1.12689 2.93854 0.764679 3.21563 0.458807C3.49271 0.152934 3.82083 0 4.2 0H9.8C10.1792 0 10.5073 0.152934 10.7844 0.458807C11.0615 0.764679 11.2 1.12689 11.2 1.54545Z" fill="#0D0D0D"/>
</svg>
