<svg width="38" height="38" viewBox="0 0 38 38" fill="none" xmlns="http://www.w3.org/2000/svg">
<path d="M28.7568 2.80457L24.0561 2.80457C22.1074 2.80457 20.4418 3.49583 19.0593 4.87838C17.6767 6.26092 16.9854 7.9397 16.9854 9.91476L16.9854 13.9439C16.9854 14.7866 16.6892 15.5042 16.0967 16.0967C15.5042 16.6892 14.7866 16.9854 13.9439 16.9854L9.24324 16.9854C8.87456 16.1428 8.29522 15.4581 7.5052 14.9314C6.71517 14.4047 5.83299 14.1414 4.85863 14.1414C3.51559 14.1414 2.37007 14.6154 1.42204 15.5634C0.474007 16.5114 -8.89223e-07 17.657 -8.30516e-07 19C-7.7181e-07 20.343 0.474007 21.4886 1.42204 22.4366C2.37007 23.3846 3.51559 23.8586 4.85863 23.8586C5.83299 23.8586 6.71517 23.5953 7.5052 23.0686C8.29522 22.5419 8.87456 21.8572 9.24324 21.0146L13.9439 21.0146C14.7866 21.0146 15.5042 21.3108 16.0967 21.9033C16.6892 22.4958 16.9854 23.2134 16.9854 24.0561L16.9854 28.0852C16.9854 30.0603 17.6767 31.7391 19.0593 33.1216C20.4418 34.5042 22.1074 35.1954 24.0561 35.1954L28.7568 35.1954C29.1518 36.0118 29.7377 36.6833 30.5146 37.21C31.2914 37.7367 32.1802 38 33.1809 38C34.5239 38 35.6629 37.526 36.5977 36.578C37.5326 35.6299 38 34.4844 38 33.1414C38 31.7983 37.526 30.6594 36.578 29.7245C35.6299 28.7897 34.4976 28.3222 33.1809 28.3222C32.1802 28.3222 31.2914 28.5856 30.5146 29.1123C29.7377 29.6389 29.1518 30.3105 28.7568 31.1268L24.0561 31.1268C23.2134 31.1268 22.4958 30.8306 21.9033 30.238C21.3108 29.6455 21.0146 28.9279 21.0146 28.0852L21.0146 24.0561C21.0146 23.5031 20.9553 22.9764 20.8368 22.4761C20.7183 21.9757 20.5405 21.4886 20.3035 21.0146L28.7568 21.0146C29.1518 21.8572 29.7377 22.5419 30.5146 23.0686C31.2914 23.5953 32.1802 23.8586 33.1809 23.8586C34.5239 23.8586 35.6629 23.3846 36.5977 22.4366C37.5326 21.4886 38 20.343 38 19C38 17.657 37.526 16.5114 36.578 15.5634C35.6299 14.6154 34.4976 14.1414 33.1809 14.1414C32.1802 14.1414 31.2914 14.4047 30.5146 14.9314C29.7377 15.4581 29.1518 16.1428 28.7568 16.9854L20.3035 16.9854C20.5405 16.5114 20.7183 16.0243 20.8368 15.5239C20.9553 15.0236 21.0146 14.4969 21.0146 13.9439L21.0146 9.91476C21.0146 9.07207 21.3108 8.35447 21.9033 7.76195C22.4958 7.16943 23.2134 6.87318 24.0561 6.87318L28.7568 6.87318C29.1518 7.68954 29.7377 8.36105 30.5146 8.88773C31.2914 9.41441 32.1802 9.67775 33.1809 9.67775C34.5239 9.67775 35.6629 9.21033 36.5977 8.27547C37.5326 7.3406 38 6.20167 38 4.85863C38 3.51558 37.526 2.37006 36.578 1.42203C35.6299 0.474005 34.4976 -1.50794e-06 33.1809 -1.45038e-06C32.1802 -1.40664e-06 31.2914 0.263335 30.5146 0.790019C29.7377 1.3167 29.1518 1.98821 28.7568 2.80457ZM2.05405 19C2.05405 18.2363 2.32397 17.578 2.86382 17.0249C3.40367 16.4719 4.0686 16.1954 4.85863 16.1954C5.62232 16.1954 6.28066 16.4719 6.83368 17.0249C7.3867 17.578 7.6632 18.2363 7.6632 19C7.6632 19.7637 7.3867 20.422 6.83368 20.9751C6.28066 21.5281 5.62232 21.8046 4.85863 21.8046C4.0686 21.8046 3.40367 21.5281 2.86382 20.9751C2.32397 20.422 2.05405 19.7637 2.05405 19ZM35.9854 33.1414C35.9854 33.9314 35.7089 34.5963 35.1559 35.1362C34.6029 35.676 33.9446 35.9459 33.1809 35.9459C32.3908 35.9459 31.7259 35.676 31.1861 35.1362C30.6462 34.5963 30.3763 33.9314 30.3763 33.1414C30.3763 32.3777 30.6462 31.7259 31.1861 31.1861C31.7259 30.6462 32.3908 30.3763 33.1809 30.3763C33.9446 30.3763 34.6029 30.6462 35.1559 31.1861C35.7089 31.7259 35.9854 32.3777 35.9854 33.1414ZM35.9854 19C35.9854 19.7637 35.7089 20.422 35.1559 20.9751C34.6029 21.5281 33.9446 21.8046 33.1809 21.8046C32.3908 21.8046 31.7259 21.5281 31.1861 20.9751C30.6462 20.422 30.3763 19.7637 30.3763 19C30.3763 18.2363 30.6462 17.578 31.1861 17.0249C31.7259 16.4719 32.3908 16.1954 33.1809 16.1954C33.9446 16.1954 34.6029 16.4719 35.1559 17.0249C35.7089 17.578 35.9854 18.2363 35.9854 19ZM35.9854 4.85863C35.9854 5.62232 35.7089 6.28066 35.1559 6.83368C34.6029 7.38669 33.9446 7.6632 33.1809 7.6632C32.3908 7.6632 31.7259 7.38669 31.1861 6.83368C30.6462 6.28066 30.3763 5.62232 30.3763 4.85863C30.3763 4.0686 30.6462 3.40367 31.1861 2.86382C31.7259 2.32397 32.3908 2.05405 33.1809 2.05405C33.9446 2.05405 34.6029 2.32397 35.1559 2.86382C35.7089 3.40367 35.9854 4.0686 35.9854 4.85863Z" fill="#0D0D0D"/>
</svg>
