<svg xmlns="http://www.w3.org/2000/svg" viewBox="0 0 250.785 157.48">
  <g>
    <g>
      <path d="M13.706,27.791q-.087-.462-.182-.89t-.193-.8a2.527,2.527,0,0,0-.164-.484.423.423,0,0,0-.138-.158.353.353,0,0,0-.184-.044.453.453,0,0,0-.223.056.863.863,0,0,0-.217.193,4.889,4.889,0,0,0-.31.431l-.381-.252a3.707,3.707,0,0,1,.709-.832,1.232,1.232,0,0,1,.8-.275,1.1,1.1,0,0,1,.319.041.686.686,0,0,1,.243.126.833.833,0,0,1,.188.219,1.853,1.853,0,0,1,.158.367,4.834,4.834,0,0,1,.143.574c.045.228.085.466.121.712h.058q.563-.792.853-1.158a4.5,4.5,0,0,1,.489-.544,1.288,1.288,0,0,1,.384-.252,1.345,1.345,0,0,1,.489-.074,1.222,1.222,0,0,1,.451.071l-.234,1.06h-.41c-.024-.164-.092-.246-.205-.246a.379.379,0,0,0-.112.018.516.516,0,0,0-.143.076,1.881,1.881,0,0,0-.249.228c-.11.114-.233.252-.37.416s-.277.336-.421.516l-.4.5c.07.375.137.7.2.973s.119.5.167.682.092.326.129.431a.8.8,0,0,0,.12.237.4.4,0,0,0,.132.112.365.365,0,0,0,.156.032.479.479,0,0,0,.307-.123,2.753,2.753,0,0,0,.431-.557l.381.252a3.617,3.617,0,0,1-.742.858,1.266,1.266,0,0,1-.788.25.926.926,0,0,1-.427-.091.815.815,0,0,1-.3-.29,2.081,2.081,0,0,1-.229-.621,9.3,9.3,0,0,1-.222-1.149h-.059q-.621.873-.923,1.254a5.271,5.271,0,0,1-.5.563,1.245,1.245,0,0,1-.381.254,1.345,1.345,0,0,1-.489.074,1.225,1.225,0,0,1-.451-.071l.234-1.06h.411c.023.164.091.246.205.246a.4.4,0,0,0,.172-.044,1.163,1.163,0,0,0,.261-.211c.113-.111.27-.286.469-.524S13.327,28.268,13.706,27.791Z" fill="#231f20"/>
      <path d="M19.672,33.544a1.477,1.477,0,0,0,.022.3.355.355,0,0,0,.079.164.373.373,0,0,0,.162.1,1.334,1.334,0,0,0,.267.055c.107.013.248.021.423.025v.25H18.1v-.25a4.446,4.446,0,0,0,.541-.046.642.642,0,0,0,.248-.087.328.328,0,0,0,.124-.164,1.051,1.051,0,0,0,.04-.345v-2.77a.333.333,0,0,0-.048-.2.166.166,0,0,0-.14-.063.732.732,0,0,0-.311.112q-.2.114-.5.311l-.15-.263,1.6-.952h.188q-.02.327-.02.908Z" fill="#231f20"/>
    </g>
    <g>
      <path d="M51.642,28.509a3.272,3.272,0,0,0-.144.839.641.641,0,0,0,.707.732c1.3,0,1.967-1.379,2.339-2.435a2.854,2.854,0,0,0,.18-.887c0-.888-.708-.792-.732-1.307-.024-.432.36-.5.648-.5.5,0,.564.611.564,1,0,1.751-1.26,4.606-3.31,4.606-.828,0-1.332-.336-1.332-1.2a5.8,5.8,0,0,1,.276-1.5c-.48,1.068-1.463,2.7-2.807,2.7-.671,0-.935-.408-.935-1.044a4.578,4.578,0,0,1,.228-1.139l.564-2.123a1.144,1.144,0,0,0,.059-.348c0-.288-.455-.264-.647-.264v-.179a8.419,8.419,0,0,0,1.859-.528l.048.036-.972,3.682a4.114,4.114,0,0,0-.131.875c0,.312.071.564.336.564.7-.012,1.546-1.367,1.834-1.811a10.787,10.787,0,0,0,1.319-3.226H52.6Z" fill="#231f20"/>
      <path d="M56.476,33.9a.528.528,0,0,0-.007.1c0,.05.042.07.091.07.153,0,.2-.083.447-.356l.091.07c-.245.315-.595.734-.937.734-.2,0-.279-.133-.279-.322a16.216,16.216,0,0,1,.552-2.362.3.3,0,0,0,.014-.084c0-.119-.056-.153-.217-.153a.836.836,0,0,0-.2.027l-.02-.111,1.1-.154Zm.517-3.1a.316.316,0,0,1-.336-.322.342.342,0,0,1,.336-.349.357.357,0,0,1,.335.349A.329.329,0,0,1,56.993,30.8Z" fill="#231f20"/>
      <path d="M58.218,35.288c.385-.258.58-.517.58-.747a.094.094,0,0,0-.1-.091c-.055,0-.125.028-.2.028-.259,0-.406-.119-.406-.357a.388.388,0,0,1,.42-.4.565.565,0,0,1,.559.608,1.284,1.284,0,0,1-.783,1.09Z" fill="#231f20"/>
      <path d="M60.282,34.436v-.1c.517-.028.664-.175.664-.559V30.634c0-.238-.063-.342-.21-.342a1.05,1.05,0,0,0-.315.083l-.188.071v-.1l1.251-.635.062.021v4.172c0,.3.141.426.665.426v.1Z" fill="#231f20"/>
    </g>
    <g>
      <path d="M15.108,55.748c.312-.479.732-1.007,1.332-1.007.383,0,.587.144.587.4a.48.48,0,0,1-.467.5c-.264,0-.324-.107-.528-.107-.36,0-.492.191-.66.455l-.66,1.02c.36.743.636,2.362,1.176,2.362.192,0,.48-.168.732-.683l.168.12c-.144.18-.684,1.331-1.38,1.331-.491,0-.719-.492-.875-.923l-.48-1.356L13.3,59.034c-.383.588-.731,1.1-1.4,1.1a.57.57,0,0,1-.623-.563.451.451,0,0,1,.455-.444c.312,0,.264.239.564.239.144,0,.456-.12.839-.707l.78-1.212-.4-1.1c-.2-.576-.515-1.067-1.175-1.067a1.347,1.347,0,0,0-.456.072l-.036-.216,1.583-.4a2.033,2.033,0,0,1,.9,1.175l.24.66Z" fill="#231f20"/>
      <path d="M18.069,60.434a1.826,1.826,0,0,1,.574-.838,1.412,1.412,0,0,1,.894-.294,1.122,1.122,0,0,1,1.132,1.181c0,.468-.216.79-1.041,1.635L18.314,63.46V63.5h1.265a.647.647,0,0,0,.72-.454l.119.049-.35.936H17.594v-.118l1.468-1.566a4.99,4.99,0,0,0,.943-1.307.942.942,0,0,0,.063-.377.778.778,0,0,0-.832-.846,1.108,1.108,0,0,0-1.02.671Z" fill="#231f20"/>
    </g>
    <g>
      <path d="M51.642,58.1a3.287,3.287,0,0,0-.144.84.64.64,0,0,0,.707.731c1.3,0,1.967-1.379,2.339-2.434a2.855,2.855,0,0,0,.18-.888c0-.887-.708-.792-.732-1.307-.024-.432.36-.5.648-.5.5,0,.564.612.564,1,0,1.751-1.26,4.6-3.31,4.6-.828,0-1.332-.336-1.332-1.2a5.789,5.789,0,0,1,.276-1.5c-.48,1.067-1.463,2.7-2.807,2.7-.671,0-.935-.408-.935-1.043a4.577,4.577,0,0,1,.228-1.14l.564-2.123a1.143,1.143,0,0,0,.059-.347c0-.288-.455-.264-.647-.264v-.18a8.419,8.419,0,0,0,1.859-.528l.048.036-.972,3.682a4.125,4.125,0,0,0-.131.876c0,.311.071.563.336.563.7-.011,1.546-1.367,1.834-1.811a10.787,10.787,0,0,0,1.319-3.226H52.6Z" fill="#231f20"/>
      <path d="M56.476,63.488a.532.532,0,0,0-.007.1c0,.049.042.07.091.07.153,0,.2-.084.447-.357l.091.07c-.245.315-.595.734-.937.734-.2,0-.279-.133-.279-.321a16.234,16.234,0,0,1,.552-2.363.287.287,0,0,0,.014-.083c0-.119-.056-.154-.217-.154a.834.834,0,0,0-.2.028l-.02-.112,1.1-.154Zm.517-3.1a.316.316,0,0,1-.336-.321.343.343,0,0,1,.336-.35.358.358,0,0,1,.335.35A.328.328,0,0,1,56.993,60.392Z" fill="#231f20"/>
      <path d="M57.673,64.8c.371-.238.531-.44.531-.629,0-.07-.028-.119-.139-.2a.381.381,0,0,1-.175-.342.333.333,0,0,1,.356-.308c.252,0,.405.238.405.518,0,.391-.321.782-.908,1.09Z" fill="#231f20"/>
      <path d="M60.016,60.434a1.832,1.832,0,0,1,.573-.838,1.417,1.417,0,0,1,.9-.294,1.122,1.122,0,0,1,1.132,1.181c0,.468-.217.79-1.041,1.635L60.261,63.46V63.5h1.264a.648.648,0,0,0,.721-.454l.118.049-.349.936H59.541v-.118l1.467-1.566a4.974,4.974,0,0,0,.944-1.307.942.942,0,0,0,.063-.377.778.778,0,0,0-.832-.846,1.107,1.107,0,0,0-1.02.671Z" fill="#231f20"/>
    </g>
    <g>
      <path d="M15.109,120.774c.312-.479.731-1.007,1.331-1.007.384,0,.588.144.588.4a.482.482,0,0,1-.468.5c-.264,0-.324-.108-.528-.108-.36,0-.491.192-.659.456l-.66,1.02c.36.743.636,2.362,1.175,2.362.192,0,.48-.168.732-.683l.168.12c-.144.18-.683,1.331-1.379,1.331-.492,0-.72-.492-.876-.923l-.48-1.356L13.3,124.06c-.384.588-.732,1.1-1.4,1.1a.571.571,0,0,1-.624-.564.452.452,0,0,1,.456-.443c.312,0,.264.239.564.239.143,0,.455-.12.839-.707l.78-1.212-.4-1.1c-.2-.576-.516-1.068-1.176-1.068a1.32,1.32,0,0,0-.455.073l-.036-.216,1.583-.4a2.027,2.027,0,0,1,.9,1.175l.24.66Z" fill="#231f20"/>
      <path d="M20.152,128.563a.407.407,0,0,0-.013.084c0,.042.034.063.1.063.14,0,.336-.245.434-.392l.076.084c-.209.315-.58.734-.908.734a.26.26,0,0,1-.28-.287,1.521,1.521,0,0,1,.07-.447H19.6c-.517.65-.936.734-1.2.734-.51,0-.615-.517-.615-.888,0-.719.72-2.278,1.8-2.278.4,0,.56.182.566.35h.015l.37-1.461a.351.351,0,0,0,.014-.084c0-.091-.049-.139-.231-.139a1.425,1.425,0,0,0-.189.02l-.027-.1,1.09-.168Zm-.5-2.383c-.692,0-1.258,1.4-1.258,2.068,0,.343.2.462.392.462.489,0,.95-.657,1.146-1.3a2.568,2.568,0,0,0,.111-.734C20.047,126.347,19.943,126.18,19.656,126.18Z" fill="#231f20"/>
    </g>
    <g>
      <path d="M51.642,123.125a3.287,3.287,0,0,0-.144.84.641.641,0,0,0,.707.731c1.3,0,1.967-1.379,2.339-2.434a2.86,2.86,0,0,0,.18-.888c0-.887-.708-.792-.732-1.307-.024-.432.36-.5.648-.5.5,0,.564.612.564,1,0,1.751-1.26,4.606-3.31,4.606-.828,0-1.332-.336-1.332-1.2a5.789,5.789,0,0,1,.276-1.5c-.48,1.067-1.463,2.7-2.807,2.7-.671,0-.935-.408-.935-1.044a4.578,4.578,0,0,1,.228-1.139l.564-2.123a1.143,1.143,0,0,0,.059-.347c0-.289-.455-.265-.647-.265v-.179a8.419,8.419,0,0,0,1.859-.528l.048.036-.972,3.682a4.125,4.125,0,0,0-.131.876c0,.311.071.563.336.563.7-.012,1.546-1.367,1.834-1.811a10.787,10.787,0,0,0,1.319-3.226H52.6Z" fill="#231f20"/>
      <path d="M56.476,128.514a.532.532,0,0,0-.007.1c0,.049.042.069.091.069.153,0,.2-.083.447-.356l.091.07c-.245.315-.595.734-.937.734-.2,0-.279-.133-.279-.322a16.259,16.259,0,0,1,.552-2.362.294.294,0,0,0,.014-.083c0-.119-.056-.154-.217-.154a.834.834,0,0,0-.2.028l-.02-.112,1.1-.154Zm.517-3.1a.316.316,0,0,1-.336-.321.343.343,0,0,1,.336-.35.358.358,0,0,1,.335.35A.328.328,0,0,1,56.993,125.418Z" fill="#231f20"/>
      <path d="M57.673,129.828c.371-.238.531-.44.531-.629,0-.07-.028-.119-.139-.2a.383.383,0,0,1-.175-.342.333.333,0,0,1,.356-.308c.252,0,.405.238.405.518,0,.391-.321.782-.908,1.089Z" fill="#231f20"/>
      <path d="M62.1,128.563a.351.351,0,0,0-.014.084q0,.063.1.063c.139,0,.335-.245.433-.392l.077.084c-.21.315-.58.734-.909.734a.259.259,0,0,1-.279-.287,1.488,1.488,0,0,1,.07-.447h-.036c-.517.65-.936.734-1.194.734-.511,0-.616-.517-.616-.888,0-.719.721-2.278,1.8-2.278.4,0,.559.182.566.35h.014l.37-1.461a.351.351,0,0,0,.014-.084c0-.091-.049-.139-.23-.139a1.425,1.425,0,0,0-.189.02l-.028-.1,1.09-.168Zm-.5-2.383c-.692,0-1.258,1.4-1.258,2.068,0,.343.2.462.391.462.489,0,.951-.657,1.146-1.3a2.571,2.571,0,0,0,.112-.734C61.994,126.347,61.889,126.18,61.6,126.18Z" fill="#231f20"/>
    </g>
    <g>
      <path d="M112.12,26.906a2.158,2.158,0,0,1,1.451-.755c.84,0,1.331.827,1.331,1.811,0,1.451-1.307,3.61-3.19,3.61A2.862,2.862,0,0,1,110.045,31l1.727-6.752a.619.619,0,0,0,.024-.132c-.012-.156-.192-.252-.348-.252a1.145,1.145,0,0,0-.36.048l-.035-.192,1.894-.288-.875,3.43ZM110.993,31c0,.084.384.228.659.228,1.463,0,2.255-2.087,2.255-3.31,0-.84-.456-1.1-.852-1.1-.863,0-1.271,1.068-1.4,1.607Z" fill="#231f20"/>
      <path d="M116.088,34.9a.614.614,0,0,0-.006.1c0,.05.042.07.09.07.154,0,.2-.083.448-.356l.091.07c-.245.315-.595.734-.937.734-.2,0-.279-.133-.279-.322a16.242,16.242,0,0,1,.551-2.362.268.268,0,0,0,.015-.084c0-.119-.057-.153-.217-.153a.828.828,0,0,0-.2.027l-.02-.111,1.1-.154Zm.518-3.1a.316.316,0,0,1-.336-.322.342.342,0,0,1,.336-.349.357.357,0,0,1,.335.349A.329.329,0,0,1,116.606,31.8Z" fill="#231f20"/>
    </g>
    <circle cx="54.373" cy="29.44" r="12.181" fill="none" stroke="#231f20" stroke-miterlimit="10" stroke-width="0.75"/>
    <circle cx="114.068" cy="29.44" r="12.181" fill="none" stroke="#231f20" stroke-miterlimit="10" stroke-width="0.75"/>
    <circle cx="114.068" cy="77.206" r="18.941" fill="none" stroke="#231f20" stroke-miterlimit="10" stroke-width="1.166"/>
    <circle cx="54.373" cy="58.264" r="12.181" fill="none" stroke="#231f20" stroke-miterlimit="10" stroke-width="0.75"/>
    <circle cx="54.373" cy="124.056" r="12.181" fill="none" stroke="#231f20" stroke-miterlimit="10" stroke-width="0.75"/>
    <path d="M121.02,87.971H104.628l8.625-11.222-8.075-11.266h16.436v5.523h-.66c-.462-2.97-1.3-4.071-4.224-4.071h-7.041l6.38,8.6-7.393,9.549h9.11c2.464,0,3.256-1.5,3.74-3.7h.661Z" fill="#231f20"/>
    <path d="M178.9,72.609c2.267,0,4.291.836,4.291,3.41a6.416,6.416,0,0,1-1.76,4.489,6.5,6.5,0,0,1-4.973,2.024L175.4,86.316h-1.782l1.011-3.784c-2.376,0-4.2-1.232-4.2-3.763a6.313,6.313,0,0,1,6.359-6.16h.352c.418-1.673.814-3.345,1.166-5.017h1.8Zm-1.892.637c-2.861,0-4.731,2.949-4.731,5.567,0,1.387,1.013,3.059,2.553,3.059Zm-.4,8.626c2.662,0,4.708-3.323,4.708-5.743,0-1.738-.7-2.905-2.574-2.883Z" fill="#231f20"/>
    <g>
      <path d="M229.523,79.389a33.379,33.379,0,0,0,2.6-4.048,3.735,3.735,0,0,0,.616-1.651c0-.462-1.144-.682-1.144-1.518a.928.928,0,0,1,1.034-.88,1.245,1.245,0,0,1,1.254,1.364c0,1.716-3.564,7-4.488,8.164-1.607,2.024-3.036,4.18-4.534,4.18a1.221,1.221,0,0,1-1.231-1.21.9.9,0,0,1,.88-.9c.946,0,.9.682,1.254.682.374,0,1.629-1.365,2.2-2.244l-.836-6.91c-.11-.989-.308-2.31-1.54-2.31a7.914,7.914,0,0,0-.792.088l-.044-.352,3.3-.55a5.537,5.537,0,0,1,.858,2.927Z" fill="#231f20"/>
      <path d="M233.409,87.311a1.048,1.048,0,0,0-.012.18c0,.09.077.128.167.128.282,0,.359-.153.821-.654l.167.129c-.449.577-1.091,1.347-1.72,1.347-.359,0-.514-.244-.514-.591a29.836,29.836,0,0,1,1.014-4.337.505.505,0,0,0,.026-.154c0-.218-.1-.282-.4-.282a1.493,1.493,0,0,0-.359.051l-.038-.2,2.027-.283Zm.95-5.684a.58.58,0,0,1-.616-.591.629.629,0,0,1,.616-.641.657.657,0,0,1,.616.641A.6.6,0,0,1,234.359,81.627Z" fill="#231f20"/>
    </g>
    <rect x="158.551" y="58.264" width="37.453" height="37.453" fill="none" stroke="#231f20" stroke-miterlimit="10" stroke-width="0.75"/>
    <g>
      <line x1="25.528" y1="28.44" x2="39.928" y2="28.44" fill="none" stroke="#231f20" stroke-miterlimit="10" stroke-width="0.75"/>
      <g>
        <path d="M25.608,29.85a1.41,1.41,0,1,1,1.41-1.41A1.41,1.41,0,0,1,25.608,29.85Z" fill="#fff"/>
        <path d="M25.608,30.037a1.6,1.6,0,1,0-1.6-1.6,1.6,1.6,0,0,0,1.6,1.6Zm0-2.82a1.223,1.223,0,1,1-1.223,1.223,1.223,1.223,0,0,1,1.223-1.223Z" fill="#231f20"/>
      </g>
      <path d="M42.191,28.44a11.342,11.342,0,0,0-3.205,1.783l.645-1.783-.645-1.783A11.342,11.342,0,0,0,42.191,28.44Z" fill="#231f20"/>
    </g>
    <g>
      <line x1="25.528" y1="58.264" x2="39.928" y2="58.264" fill="none" stroke="#231f20" stroke-miterlimit="10" stroke-width="0.75"/>
      <g>
        <path d="M25.608,59.674a1.41,1.41,0,1,1,1.41-1.41A1.41,1.41,0,0,1,25.608,59.674Z" fill="#fff"/>
        <path d="M25.608,59.862a1.6,1.6,0,1,0-1.6-1.6,1.6,1.6,0,0,0,1.6,1.6Zm0-2.82a1.223,1.223,0,1,1-1.223,1.222,1.223,1.223,0,0,1,1.223-1.222Z" fill="#231f20"/>
      </g>
      <path d="M42.191,58.264a11.369,11.369,0,0,0-3.205,1.784l.645-1.784-.645-1.783A11.318,11.318,0,0,0,42.191,58.264Z" fill="#231f20"/>
    </g>
    <g>
      <line x1="25.528" y1="125.056" x2="39.928" y2="125.056" fill="none" stroke="#231f20" stroke-miterlimit="10" stroke-width="0.75"/>
      <g>
        <path d="M25.608,126.466a1.41,1.41,0,1,1,1.41-1.41A1.41,1.41,0,0,1,25.608,126.466Z" fill="#fff"/>
        <path d="M25.608,126.654a1.6,1.6,0,1,0-1.6-1.6,1.6,1.6,0,0,0,1.6,1.6Zm0-2.82a1.223,1.223,0,1,1-1.223,1.222,1.223,1.223,0,0,1,1.223-1.222Z" fill="#231f20"/>
      </g>
      <path d="M42.191,125.056a11.345,11.345,0,0,0-3.205,1.784l.645-1.784-.645-1.783A11.342,11.342,0,0,0,42.191,125.056Z" fill="#231f20"/>
    </g>
    <g>
      <polyline points="66.554 29.44 80.463 29.44 101.804 59.912" fill="none" stroke="#231f20" stroke-miterlimit="10" stroke-width="0.75"/>
      <path d="M103.1,61.766a11.347,11.347,0,0,0-3.3-1.6l1.831-.5,1.091-1.551A11.31,11.31,0,0,0,103.1,61.766Z" fill="#231f20"/>
    </g>
    <g>
      <polyline points="66.554 58.264 80.463 58.264 95.933 66.228" fill="none" stroke="#231f20" stroke-miterlimit="10" stroke-width="0.75"/>
      <path d="M97.945,67.264a11.337,11.337,0,0,0-3.666.119l1.39-1.291.243-1.88A11.32,11.32,0,0,0,97.945,67.264Z" fill="#231f20"/>
    </g>
    <g>
      <polyline points="66.554 125.056 80.463 125.056 100.646 94.247" fill="none" stroke="#231f20" stroke-miterlimit="10" stroke-width="0.75"/>
      <path d="M101.886,92.354a11.322,11.322,0,0,0-.264,3.659L100.483,94.5l-1.845-.438A11.32,11.32,0,0,0,101.886,92.354Z" fill="#231f20"/>
    </g>
    <g>
      <polyline points="114.068 41.621 114.068 48.441 114.068 56.001" fill="none" stroke="#231f20" stroke-miterlimit="10" stroke-width="0.75"/>
      <path d="M114.068,58.264a11.356,11.356,0,0,0-1.784-3.205l1.784.645,1.783-.645A11.3,11.3,0,0,0,114.068,58.264Z" fill="#231f20"/>
    </g>
    <g>
      <polyline points="133.009 76.991 143.631 76.991 156.288 77.173" fill="none" stroke="#231f20" stroke-miterlimit="10" stroke-width="0.75"/>
      <path d="M158.551,77.206a11.32,11.32,0,0,0-3.23,1.737l.67-1.774-.619-1.792A11.323,11.323,0,0,0,158.551,77.206Z" fill="#231f20"/>
    </g>
    <g>
      <polyline points="196.005 76.884 206.626 76.884 219.284 77.066" fill="none" stroke="#231f20" stroke-miterlimit="10" stroke-width="0.75"/>
      <path d="M221.547,77.1a11.315,11.315,0,0,0-3.231,1.738l.671-1.774-.619-1.793A11.309,11.309,0,0,0,221.547,77.1Z" fill="#231f20"/>
    </g>
    <g>
      <path d="M13.841,79.4a1.519,1.519,0,0,1,.193-.769,1.33,1.33,0,0,1,.537-.517,1.6,1.6,0,0,1,.769-.184,1.468,1.468,0,0,1,.738.193,1.433,1.433,0,0,1,.537.542,1.631,1.631,0,0,1,.012,1.543,1.283,1.283,0,0,1-.525.515,1.588,1.588,0,0,1-.766.181,1.528,1.528,0,0,1-.767-.193,1.374,1.374,0,0,1-.535-.537A1.56,1.56,0,0,1,13.841,79.4Z" fill="#231f20"/>
      <path d="M13.841,83.837a1.517,1.517,0,0,1,.193-.769,1.332,1.332,0,0,1,.537-.518,1.614,1.614,0,0,1,.769-.183,1.458,1.458,0,0,1,.738.193,1.426,1.426,0,0,1,.537.542,1.631,1.631,0,0,1,.012,1.543,1.289,1.289,0,0,1-.525.515,1.588,1.588,0,0,1-.766.181,1.538,1.538,0,0,1-.767-.193,1.388,1.388,0,0,1-.535-.537A1.565,1.565,0,0,1,13.841,83.837Z" fill="#231f20"/>
      <path d="M13.841,88.27a1.519,1.519,0,0,1,.193-.769,1.33,1.33,0,0,1,.537-.517,1.614,1.614,0,0,1,.769-.183,1.467,1.467,0,0,1,.738.192,1.441,1.441,0,0,1,.537.542,1.631,1.631,0,0,1,.012,1.543,1.285,1.285,0,0,1-.525.516,1.6,1.6,0,0,1-.766.18,1.528,1.528,0,0,1-.767-.193,1.374,1.374,0,0,1-.535-.537A1.56,1.56,0,0,1,13.841,88.27Z" fill="#231f20"/>
      <path d="M13.841,92.7a1.517,1.517,0,0,1,.193-.769,1.332,1.332,0,0,1,.537-.518,1.614,1.614,0,0,1,.769-.183,1.468,1.468,0,0,1,.738.193,1.426,1.426,0,0,1,.537.542,1.631,1.631,0,0,1,.012,1.543,1.283,1.283,0,0,1-.525.515,1.588,1.588,0,0,1-.766.181,1.538,1.538,0,0,1-.767-.193,1.381,1.381,0,0,1-.535-.537A1.562,1.562,0,0,1,13.841,92.7Z" fill="#231f20"/>
      <path d="M13.841,97.138a1.523,1.523,0,0,1,.193-.77,1.33,1.33,0,0,1,.537-.517,1.614,1.614,0,0,1,.769-.183,1.458,1.458,0,0,1,.738.193,1.426,1.426,0,0,1,.537.542,1.631,1.631,0,0,1,.012,1.543,1.289,1.289,0,0,1-.525.515,1.6,1.6,0,0,1-.766.18,1.538,1.538,0,0,1-.767-.192,1.383,1.383,0,0,1-.535-.538A1.558,1.558,0,0,1,13.841,97.138Z" fill="#231f20"/>
      <path d="M13.841,101.571a1.519,1.519,0,0,1,.193-.769,1.339,1.339,0,0,1,.537-.518,1.614,1.614,0,0,1,.769-.183,1.468,1.468,0,0,1,.738.193,1.433,1.433,0,0,1,.537.542,1.631,1.631,0,0,1,.012,1.543,1.283,1.283,0,0,1-.525.515,1.588,1.588,0,0,1-.766.181,1.528,1.528,0,0,1-.767-.193,1.374,1.374,0,0,1-.535-.537A1.56,1.56,0,0,1,13.841,101.571Z" fill="#231f20"/>
    </g>
    <g>
      <path d="M49.96,79.4a1.509,1.509,0,0,1,.193-.769,1.324,1.324,0,0,1,.537-.517,1.6,1.6,0,0,1,.769-.184,1.461,1.461,0,0,1,.737.193,1.426,1.426,0,0,1,.537.542,1.525,1.525,0,0,1,.2.774,1.545,1.545,0,0,1-.188.769,1.3,1.3,0,0,1-.525.515,1.592,1.592,0,0,1-.767.181,1.527,1.527,0,0,1-.766-.193,1.368,1.368,0,0,1-.535-.537A1.549,1.549,0,0,1,49.96,79.4Z" fill="#231f20"/>
      <path d="M49.96,83.837a1.507,1.507,0,0,1,.193-.769,1.326,1.326,0,0,1,.537-.518,1.611,1.611,0,0,1,.769-.183,1.451,1.451,0,0,1,.737.193,1.419,1.419,0,0,1,.537.542,1.525,1.525,0,0,1,.2.774,1.548,1.548,0,0,1-.188.769,1.3,1.3,0,0,1-.525.515,1.592,1.592,0,0,1-.767.181,1.537,1.537,0,0,1-.766-.193,1.381,1.381,0,0,1-.535-.537A1.554,1.554,0,0,1,49.96,83.837Z" fill="#231f20"/>
      <path d="M49.96,88.27a1.509,1.509,0,0,1,.193-.769,1.324,1.324,0,0,1,.537-.517,1.611,1.611,0,0,1,.769-.183,1.46,1.46,0,0,1,.737.192,1.433,1.433,0,0,1,.537.542,1.525,1.525,0,0,1,.2.774,1.545,1.545,0,0,1-.188.769,1.3,1.3,0,0,1-.525.516,1.6,1.6,0,0,1-.767.18,1.527,1.527,0,0,1-.766-.193,1.368,1.368,0,0,1-.535-.537A1.549,1.549,0,0,1,49.96,88.27Z" fill="#231f20"/>
      <path d="M49.96,92.7a1.507,1.507,0,0,1,.193-.769,1.326,1.326,0,0,1,.537-.518,1.611,1.611,0,0,1,.769-.183,1.461,1.461,0,0,1,.737.193,1.419,1.419,0,0,1,.537.542,1.525,1.525,0,0,1,.2.774,1.545,1.545,0,0,1-.188.769,1.3,1.3,0,0,1-.525.515,1.592,1.592,0,0,1-.767.181,1.537,1.537,0,0,1-.766-.193,1.374,1.374,0,0,1-.535-.537A1.552,1.552,0,0,1,49.96,92.7Z" fill="#231f20"/>
      <path d="M49.96,97.138a1.513,1.513,0,0,1,.193-.77,1.324,1.324,0,0,1,.537-.517,1.611,1.611,0,0,1,.769-.183,1.451,1.451,0,0,1,.737.193,1.419,1.419,0,0,1,.537.542,1.522,1.522,0,0,1,.2.774,1.551,1.551,0,0,1-.188.769,1.3,1.3,0,0,1-.525.515,1.6,1.6,0,0,1-.767.18,1.537,1.537,0,0,1-.766-.192,1.377,1.377,0,0,1-.535-.538A1.548,1.548,0,0,1,49.96,97.138Z" fill="#231f20"/>
      <path d="M49.96,101.571a1.509,1.509,0,0,1,.193-.769,1.333,1.333,0,0,1,.537-.518,1.611,1.611,0,0,1,.769-.183,1.461,1.461,0,0,1,.737.193,1.426,1.426,0,0,1,.537.542,1.525,1.525,0,0,1,.2.774,1.545,1.545,0,0,1-.188.769,1.3,1.3,0,0,1-.525.515,1.592,1.592,0,0,1-.767.181,1.527,1.527,0,0,1-.766-.193,1.368,1.368,0,0,1-.535-.537A1.549,1.549,0,0,1,49.96,101.571Z" fill="#231f20"/>
    </g>
    <g>
      <path d="M46.473,142.577l-1.231,5.838a.317.317,0,0,1-.106.163.3.3,0,0,1-.2.066h-.879a.311.311,0,0,1-.2-.066.267.267,0,0,1-.1-.171l-.95-4.563c-.023-.118-.047-.233-.07-.348s-.047-.227-.07-.338h-.185q-.035.167-.066.342c-.02.118-.042.232-.066.344l-.941,4.563a.3.3,0,0,1-.11.171.306.306,0,0,1-.2.066h-.889a.306.306,0,0,1-.2-.066.258.258,0,0,1-.1-.163l-1.231-5.838H39.5l.949,4.73c.023.112.044.23.061.356s.038.257.062.392h.2c.023-.135.047-.264.071-.387s.047-.243.07-.361l.941-4.475a.285.285,0,0,1,.1-.184.3.3,0,0,1,.2-.071H43a.28.28,0,0,1,.193.071.336.336,0,0,1,.105.184l.941,4.475q.045.194.075.378c.021.123.037.247.048.37h.22c.018-.123.035-.248.053-.374s.038-.248.061-.365l.959-4.739Z" fill="#231f20"/>
      <path d="M49.031,144.257a2.24,2.24,0,0,1,1.4.351,1.268,1.268,0,0,1,.435,1.047,1.4,1.4,0,0,1-.238.892.923.923,0,0,1-.782.321h-2.5v-.581h2.3a.367.367,0,0,0,.378-.2,1.054,1.054,0,0,0,.088-.435.705.705,0,0,0-.246-.589,1.4,1.4,0,0,0-.809-.177,1.636,1.636,0,0,0-.734.137.765.765,0,0,0-.378.475,3.193,3.193,0,0,0-.11.945,3.091,3.091,0,0,0,.137,1.046.82.82,0,0,0,.435.493,1.98,1.98,0,0,0,.791.132c.229,0,.479-.011.752-.031s.517-.046.734-.075l.079.5a2.635,2.635,0,0,1-.5.132q-.294.053-.606.079c-.208.018-.395.026-.559.026a2.663,2.663,0,0,1-1.187-.224,1.355,1.355,0,0,1-.655-.721,4.351,4.351,0,0,1,0-2.646,1.291,1.291,0,0,1,.642-.695A2.635,2.635,0,0,1,49.031,144.257Z" fill="#231f20"/>
      <path d="M52.574,142.542a.2.2,0,0,1,.229.229v.5a.2.2,0,0,1-.229.228h-.351a.2.2,0,0,1-.229-.228v-.5a.2.2,0,0,1,.229-.229Zm.194,1.82v4.282h-.739v-4.282Z" fill="#231f20"/>
      <path d="M54.658,146.7l.43.062a.651.651,0,0,0-.2.32.409.409,0,0,0,.387.55l1.6.255a1.3,1.3,0,0,1,.844.378,1.268,1.268,0,0,1,.238.826,1.439,1.439,0,0,1-.189.792,1.057,1.057,0,0,1-.638.413,4.763,4.763,0,0,1-1.213.123,6.069,6.069,0,0,1-.976-.066,1.7,1.7,0,0,1-.637-.22.871.871,0,0,1-.348-.4,1.574,1.574,0,0,1-.105-.616,1.177,1.177,0,0,1,.083-.47.926.926,0,0,1,.264-.338,2.316,2.316,0,0,1,.471-.29l.527-.291.343.123-.431.326a2.234,2.234,0,0,0-.294.259.848.848,0,0,0-.176.273.944.944,0,0,0-.057.347.775.775,0,0,0,.114.457.622.622,0,0,0,.4.216,4.436,4.436,0,0,0,.809.057,4.046,4.046,0,0,0,.8-.062.636.636,0,0,0,.4-.219.755.755,0,0,0,.115-.449.769.769,0,0,0-.057-.334.383.383,0,0,0-.216-.176,2.214,2.214,0,0,0-.466-.1l-1.538-.211a.806.806,0,0,1-.435-.176.716.716,0,0,1-.224-.334.886.886,0,0,1-.036-.392.952.952,0,0,1,.132-.369A.706.706,0,0,1,54.658,146.7Zm1.213-2.444a3.4,3.4,0,0,1,1.086.14,1.014,1.014,0,0,1,.571.44,1.554,1.554,0,0,1,.172.782,1.538,1.538,0,0,1-.172.769,1.017,1.017,0,0,1-.576.449,3.309,3.309,0,0,1-1.09.145,3.275,3.275,0,0,1-1.086-.145,1.024,1.024,0,0,1-.571-.444,1.515,1.515,0,0,1-.172-.765,1.585,1.585,0,0,1,.172-.787,1.006,1.006,0,0,1,.576-.444A3.438,3.438,0,0,1,55.871,144.257Zm-.009.571a1.6,1.6,0,0,0-.892.181.863.863,0,0,0,0,1.217,2.266,2.266,0,0,0,1.789,0,.876.876,0,0,0,0-1.217A1.594,1.594,0,0,0,55.862,144.828Zm2.339-.466-.044.413-1.091.088-.307-.5Z" fill="#231f20"/>
      <path d="M59.827,142.49l.009,1.7c0,.194-.007.375-.022.545a3.429,3.429,0,0,1-.066.449l.079.132v3.332H59.08V142.49Zm1.855,1.767a1.034,1.034,0,0,1,1.161,1.178v3.209h-.756v-3a.949.949,0,0,0-.137-.593.583.583,0,0,0-.47-.164,1.845,1.845,0,0,0-.791.186,8.022,8.022,0,0,0-.941.536l-.035-.536a5.149,5.149,0,0,1,.994-.6A2.383,2.383,0,0,1,61.682,144.257Z" fill="#231f20"/>
      <path d="M66.624,144.362v.589H63.74v-.545l.844-.044ZM65.261,143.1v4.37a.6.6,0,0,0,.132.439.62.62,0,0,0,.448.132h.651l.088.572a3.2,3.2,0,0,1-.326.061c-.123.018-.243.031-.36.04s-.211.013-.282.013a1.069,1.069,0,0,1-.817-.3,1.208,1.208,0,0,1-.281-.862V143.1Z" fill="#231f20"/>
      <path d="M68.962,144.257c.187,0,.387.006.6.017s.421.027.629.044.4.041.576.07l-.062.545c-.27-.011-.541-.022-.813-.03s-.544-.014-.813-.014a4.895,4.895,0,0,0-.625.018.5.5,0,0,0-.329.141.58.58,0,0,0-.1.387.494.494,0,0,0,.158.439,1.41,1.41,0,0,0,.466.176l1.248.281a1.511,1.511,0,0,1,.752.379,1.131,1.131,0,0,1,.242.8,1.312,1.312,0,0,1-.2.791.981.981,0,0,1-.6.352,5.006,5.006,0,0,1-1.028.088q-.229,0-.681-.018a8.552,8.552,0,0,1-1-.105l.053-.545c.141,0,.291.013.449.022s.324.013.5.013h.531a5.071,5.071,0,0,0,.757-.044.647.647,0,0,0,.386-.172.557.557,0,0,0,.115-.382.444.444,0,0,0-.185-.422,1.8,1.8,0,0,0-.492-.176l-1.231-.281a1.741,1.741,0,0,1-.563-.234.837.837,0,0,1-.308-.378,1.54,1.54,0,0,1-.1-.584,1.337,1.337,0,0,1,.175-.756.879.879,0,0,1,.546-.343A3.923,3.923,0,0,1,68.962,144.257Z" fill="#231f20"/>
    </g>
    <g>
      <path d="M160.231,137.158a.307.307,0,0,1,.184.057.276.276,0,0,1,.106.154l1.952,5.855h-.8l-1.573-4.976c-.024-.082-.049-.165-.075-.251s-.051-.165-.075-.241H159.7c-.023.076-.047.157-.07.241s-.05.169-.079.251l-1.574,4.976h-.8l1.951-5.855a.276.276,0,0,1,.106-.154.31.31,0,0,1,.185-.057Zm1.125,3.5v.669h-3.077v-.669Z" fill="#231f20"/>
      <path d="M165.075,138.837c.129,0,.273.006.431.018s.321.032.488.061a2.729,2.729,0,0,1,.462.123l-.1.484q-.291-.027-.611-.04c-.214-.009-.4-.013-.55-.013a1.923,1.923,0,0,0-.809.141.839.839,0,0,0-.43.492,2.875,2.875,0,0,0-.132.976,2.909,2.909,0,0,0,.132.98.834.834,0,0,0,.43.5,1.923,1.923,0,0,0,.809.141c.088,0,.2,0,.343-.009s.292-.014.453-.026.315-.029.462-.053l.079.5a3.651,3.651,0,0,1-.708.167,5.6,5.6,0,0,1-.761.053,2.71,2.71,0,0,1-1.187-.22,1.3,1.3,0,0,1-.646-.712,3.609,3.609,0,0,1-.2-1.319,3.552,3.552,0,0,1,.2-1.318,1.3,1.3,0,0,1,.651-.708A2.758,2.758,0,0,1,165.075,138.837Z" fill="#231f20"/>
      <path d="M169.981,138.943v.589H167.1v-.545l.844-.044Zm-1.363-1.266v4.369a.606.606,0,0,0,.132.44.618.618,0,0,0,.448.132h.651l.088.571a3.234,3.234,0,0,1-.326.062c-.123.017-.243.031-.36.039s-.211.014-.282.014a1.069,1.069,0,0,1-.817-.3,1.211,1.211,0,0,1-.281-.862v-4.466Z" fill="#231f20"/>
      <path d="M171.476,137.123a.2.2,0,0,1,.228.228v.5a.2.2,0,0,1-.228.229h-.352a.2.2,0,0,1-.229-.229v-.5a.2.2,0,0,1,.229-.228Zm.193,1.82v4.281h-.739v-4.281Z" fill="#231f20"/>
      <path d="M176.882,138.943l-1.565,4.1a.3.3,0,0,1-.1.136.268.268,0,0,1-.162.048h-.677a.276.276,0,0,1-.159-.048.288.288,0,0,1-.1-.136l-1.565-4.1h.8l1.055,3q.071.184.132.378t.123.369h.115c.046-.123.092-.247.136-.374s.086-.25.127-.373l1.055-3Z" fill="#231f20"/>
      <path d="M180.83,140.587l-.009.563-2.048.009a.542.542,0,0,0-.431.162.667.667,0,0,0-.123.426v.273a.656.656,0,0,0,.158.488.709.709,0,0,0,.51.154,2.01,2.01,0,0,0,.558-.092,2.672,2.672,0,0,0,.629-.286,2.53,2.53,0,0,0,.58-.493v.554a2.367,2.367,0,0,1-.277.286,2.919,2.919,0,0,1-.431.317,2.667,2.667,0,0,1-.553.254,2.05,2.05,0,0,1-.656.1,1.554,1.554,0,0,1-.668-.137,1.033,1.033,0,0,1-.453-.4,1.245,1.245,0,0,1-.162-.655v-.466a.987.987,0,0,1,.312-.778,1.272,1.272,0,0,1,.875-.277Zm-1.117-1.75a2.239,2.239,0,0,1,.805.128.94.94,0,0,1,.5.426,1.691,1.691,0,0,1,.167.818v3.015h-.59l-.114-.932-.053-.1v-1.987a.756.756,0,0,0-.18-.567,1.017,1.017,0,0,0-.69-.172q-.335,0-.84.035c-.337.024-.669.05-1,.08l-.07-.554c.2-.036.418-.068.655-.1s.479-.053.725-.07S179.5,138.837,179.713,138.837Z" fill="#231f20"/>
      <path d="M184.953,138.943v.589h-2.884v-.545l.845-.044Zm-1.363-1.266v4.369a.606.606,0,0,0,.132.44.623.623,0,0,0,.449.132h.65l.088.571a3.211,3.211,0,0,1-.325.062c-.123.017-.243.031-.36.039s-.212.014-.282.014a1.069,1.069,0,0,1-.817-.3,1.211,1.211,0,0,1-.282-.862v-4.466Z" fill="#231f20"/>
      <path d="M186.448,137.123a.2.2,0,0,1,.229.228v.5a.2.2,0,0,1-.229.229H186.1a.2.2,0,0,1-.229-.229v-.5a.2.2,0,0,1,.229-.228Zm.194,1.82v4.281H185.9v-4.281Z" fill="#231f20"/>
      <path d="M189.859,138.837a2.679,2.679,0,0,1,1.183.22,1.284,1.284,0,0,1,.637.717,4.547,4.547,0,0,1,0,2.628,1.284,1.284,0,0,1-.637.717,3.264,3.264,0,0,1-2.356,0,1.3,1.3,0,0,1-.642-.717,4.459,4.459,0,0,1,0-2.628,1.3,1.3,0,0,1,.642-.717A2.653,2.653,0,0,1,189.859,138.837Zm0,.633a1.537,1.537,0,0,0-.734.146.817.817,0,0,0-.382.5,4.2,4.2,0,0,0,0,1.952.822.822,0,0,0,.382.5,1.55,1.55,0,0,0,.734.145,1.58,1.58,0,0,0,.739-.145.82.82,0,0,0,.386-.5,4.2,4.2,0,0,0,0-1.952.815.815,0,0,0-.386-.5A1.567,1.567,0,0,0,189.859,139.47Z" fill="#231f20"/>
      <path d="M193.675,138.943l.061.818.053.131v3.332h-.747v-4.281Zm1.969-.106a1.034,1.034,0,0,1,1.161,1.178v3.209h-.747v-3a.934.934,0,0,0-.141-.593.6.6,0,0,0-.475-.163,1.787,1.787,0,0,0-.791.194q-.4.194-.941.527l-.035-.536a4.71,4.71,0,0,1,.994-.6A2.411,2.411,0,0,1,195.644,138.837Z" fill="#231f20"/>
      <path d="M161.87,146.163q.423,0,.853,0c.287,0,.571.008.853.013s.551.021.809.044l-.044.6h-2.277a.631.631,0,0,0-.449.136.606.606,0,0,0-.14.445v4.835H160.7v-4.985a1.027,1.027,0,0,1,.317-.8A1.221,1.221,0,0,1,161.87,146.163Zm-1.019,2.646h3.156v.624h-3.156Z" fill="#231f20"/>
      <path d="M165.959,147.956v3.007a.8.8,0,0,0,.149.572.7.7,0,0,0,.527.167,1.64,1.64,0,0,0,.717-.171,8.48,8.48,0,0,0,.858-.5l.1.519a4.422,4.422,0,0,1-.971.6,2.4,2.4,0,0,1-.955.2,1.037,1.037,0,0,1-1.169-1.178v-3.218Zm2.919,0v4.282h-.6l-.07-.809-.08-.132v-3.341Z" fill="#231f20"/>
      <path d="M170.882,147.956l.061.818.053.132v3.332h-.747v-4.282Zm1.969-.1a1.034,1.034,0,0,1,1.161,1.178v3.209h-.747v-3a.932.932,0,0,0-.141-.593.6.6,0,0,0-.475-.163,1.787,1.787,0,0,0-.791.194q-.4.192-.941.527l-.035-.536a4.716,4.716,0,0,1,.994-.6A2.426,2.426,0,0,1,172.851,147.851Z" fill="#231f20"/>
      <path d="M177.186,147.851c.129,0,.273.006.431.017s.321.033.488.062a2.52,2.52,0,0,1,.461.123l-.1.483q-.291-.025-.612-.039c-.213-.009-.4-.013-.549-.013a1.923,1.923,0,0,0-.809.141.843.843,0,0,0-.431.492,2.9,2.9,0,0,0-.131.976,2.938,2.938,0,0,0,.131.98.845.845,0,0,0,.431.5,1.923,1.923,0,0,0,.809.141c.088,0,.2,0,.343-.009s.291-.015.453-.026.314-.03.461-.053l.08.5a3.668,3.668,0,0,1-.708.167,5.6,5.6,0,0,1-.761.053,2.724,2.724,0,0,1-1.187-.22,1.3,1.3,0,0,1-.646-.713,3.6,3.6,0,0,1-.2-1.318,3.537,3.537,0,0,1,.2-1.319,1.3,1.3,0,0,1,.651-.708A2.772,2.772,0,0,1,177.186,147.851Z" fill="#231f20"/>
      <path d="M182.092,147.956v.589h-2.884V148l.844-.044Zm-1.363-1.266v4.37a.6.6,0,0,0,.132.439.616.616,0,0,0,.449.133h.65l.088.571a3.23,3.23,0,0,1-.325.061c-.123.018-.243.031-.361.04s-.211.013-.281.013a1.067,1.067,0,0,1-.818-.3,1.211,1.211,0,0,1-.281-.861V146.69Z" fill="#231f20"/>
      <path d="M183.586,146.137a.2.2,0,0,1,.229.228v.5a.2.2,0,0,1-.229.229h-.351a.2.2,0,0,1-.229-.229v-.5a.2.2,0,0,1,.229-.228Zm.194,1.819v4.282h-.739v-4.282Z" fill="#231f20"/>
      <path d="M187,147.851a2.677,2.677,0,0,1,1.182.22,1.278,1.278,0,0,1,.637.716,4.55,4.55,0,0,1,0,2.629,1.283,1.283,0,0,1-.637.717,3.278,3.278,0,0,1-2.356,0,1.306,1.306,0,0,1-.642-.717,4.462,4.462,0,0,1,0-2.629,1.3,1.3,0,0,1,.642-.716A2.654,2.654,0,0,1,187,147.851Zm0,.633a1.554,1.554,0,0,0-.735.145.823.823,0,0,0-.382.5,4.231,4.231,0,0,0,0,1.951.828.828,0,0,0,.382.5,1.566,1.566,0,0,0,.735.145,1.591,1.591,0,0,0,.738-.145.823.823,0,0,0,.387-.5,4.231,4.231,0,0,0,0-1.951.818.818,0,0,0-.387-.5A1.578,1.578,0,0,0,187,148.484Z" fill="#231f20"/>
      <path d="M190.813,147.956l.062.818.052.132v3.332h-.747v-4.282Zm1.969-.1a1.034,1.034,0,0,1,1.161,1.178v3.209H193.2v-3a.932.932,0,0,0-.141-.593.6.6,0,0,0-.475-.163,1.787,1.787,0,0,0-.791.194q-.4.192-.941.527l-.035-.536a4.716,4.716,0,0,1,.994-.6A2.426,2.426,0,0,1,192.782,147.851Z" fill="#231f20"/>
    </g>
    <g>
      <path d="M95.618,142.472q.431.009.887.044a6.861,6.861,0,0,1,.915.132l-.053.562c-.252-.011-.531-.022-.835-.03s-.6-.014-.879-.014c-.217,0-.4.008-.559.022a.97.97,0,0,0-.382.106.477.477,0,0,0-.215.273,1.643,1.643,0,0,0-.066.523,1.04,1.04,0,0,0,.18.7,1.125,1.125,0,0,0,.584.295l1.231.308a1.466,1.466,0,0,1,.963.584,2.113,2.113,0,0,1,.259,1.122,2.548,2.548,0,0,1-.118.853,1,1,0,0,1-.365.5,1.557,1.557,0,0,1-.633.237,5.514,5.514,0,0,1-.914.066c-.2,0-.459-.008-.779-.026a8.882,8.882,0,0,1-1.1-.141l.053-.571q.519.018.835.031c.211.009.393.013.545.013h.475a3.016,3.016,0,0,0,.734-.07.559.559,0,0,0,.378-.282,1.4,1.4,0,0,0,.11-.624,1.485,1.485,0,0,0-.079-.545.593.593,0,0,0-.251-.295,1.591,1.591,0,0,0-.435-.163l-1.257-.316a1.474,1.474,0,0,1-.927-.58,2,2,0,0,1-.269-1.108,2.512,2.512,0,0,1,.119-.849.96.96,0,0,1,.361-.483,1.448,1.448,0,0,1,.61-.215A6.342,6.342,0,0,1,95.618,142.472Z" fill="#231f20"/>
      <path d="M99.5,144.362v3.007a.8.8,0,0,0,.15.572.7.7,0,0,0,.527.167,1.631,1.631,0,0,0,.717-.172,8.013,8.013,0,0,0,.857-.5l.1.519a4.373,4.373,0,0,1-.972.6,2.388,2.388,0,0,1-.954.2,1.037,1.037,0,0,1-1.169-1.178v-3.218Zm2.919,0v4.282h-.6l-.071-.809-.079-.132v-3.341Z" fill="#231f20"/>
      <path d="M104.409,144.362l.053.818.079.132v3.332h-.747v-4.282Zm1.794-.1a1.121,1.121,0,0,1,.835.294,1.239,1.239,0,0,1,.3.884v3.209h-.721v-3a.828.828,0,0,0-.167-.585.673.673,0,0,0-.5-.172,1.3,1.3,0,0,0-.426.071,2.167,2.167,0,0,0-.458.229q-.25.158-.611.422l-.053-.528a3.877,3.877,0,0,1,.906-.62A2.1,2.1,0,0,1,106.2,144.257Zm2.8,0a1.14,1.14,0,0,1,.849.3,1.207,1.207,0,0,1,.294.88v3.209h-.738v-3a.929.929,0,0,0-.159-.576.628.628,0,0,0-.509-.181,1.283,1.283,0,0,0-.435.075,2.26,2.26,0,0,0-.453.234q-.247.157-.6.413l-.044-.528a3.853,3.853,0,0,1,.905-.62A2.086,2.086,0,0,1,109.007,144.257Z" fill="#231f20"/>
      <path d="M112.111,144.362l.053.818.079.132v3.332H111.5v-4.282Zm1.794-.1a1.121,1.121,0,0,1,.835.294,1.239,1.239,0,0,1,.3.884v3.209h-.721v-3a.828.828,0,0,0-.167-.585.67.67,0,0,0-.5-.172,1.3,1.3,0,0,0-.426.071,2.191,2.191,0,0,0-.458.229c-.167.105-.37.246-.611.422l-.052-.528a3.853,3.853,0,0,1,.905-.62A2.1,2.1,0,0,1,113.905,144.257Zm2.8,0a1.14,1.14,0,0,1,.848.3,1.207,1.207,0,0,1,.295.88v3.209h-.739v-3a.936.936,0,0,0-.158-.576.631.631,0,0,0-.51-.181,1.287,1.287,0,0,0-.435.075,2.287,2.287,0,0,0-.453.234c-.164.1-.364.243-.6.413l-.044-.528a3.873,3.873,0,0,1,.905-.62A2.087,2.087,0,0,1,116.71,144.257Z" fill="#231f20"/>
      <path d="M122.336,146.006l-.008.563-2.049.009a.544.544,0,0,0-.431.163.663.663,0,0,0-.123.426v.272a.661.661,0,0,0,.158.489.717.717,0,0,0,.51.153,1.986,1.986,0,0,0,.559-.092,2.626,2.626,0,0,0,.628-.286,2.55,2.55,0,0,0,.58-.492v.553a2.361,2.361,0,0,1-.277.287,2.978,2.978,0,0,1-.43.316,2.627,2.627,0,0,1-.554.255,2.076,2.076,0,0,1-.655.1,1.551,1.551,0,0,1-.668-.136,1.024,1.024,0,0,1-.453-.405,1.234,1.234,0,0,1-.163-.655v-.466a.984.984,0,0,1,.313-.778,1.268,1.268,0,0,1,.874-.277Zm-1.116-1.749a2.238,2.238,0,0,1,.8.127.936.936,0,0,1,.5.426,1.693,1.693,0,0,1,.167.818v3.016H122.1l-.115-.932-.052-.1v-1.987a.759.759,0,0,0-.18-.567,1.026,1.026,0,0,0-.69-.172c-.224,0-.5.013-.84.036s-.67.05-1,.079l-.071-.554c.2-.035.418-.067.656-.1s.479-.052.725-.07S121.009,144.257,121.22,144.257Z" fill="#231f20"/>
      <path d="M126.46,144.362v.589h-2.884v-.545l.844-.044ZM125.1,143.1v4.37a.6.6,0,0,0,.132.439.618.618,0,0,0,.448.132h.651l.088.572a3.254,3.254,0,0,1-.326.061c-.123.018-.243.031-.36.04s-.211.013-.282.013a1.069,1.069,0,0,1-.817-.3,1.208,1.208,0,0,1-.281-.862V143.1Z" fill="#231f20"/>
      <path d="M127.954,142.542a.2.2,0,0,1,.229.229v.5a.2.2,0,0,1-.229.228H127.6a.2.2,0,0,1-.229-.228v-.5a.2.2,0,0,1,.229-.229Zm.194,1.82v4.282h-.739v-4.282Z" fill="#231f20"/>
      <path d="M131.365,144.257a2.7,2.7,0,0,1,1.183.219,1.287,1.287,0,0,1,.637.717,4.573,4.573,0,0,1,0,2.629,1.282,1.282,0,0,1-.637.716,2.682,2.682,0,0,1-1.183.22,2.654,2.654,0,0,1-1.174-.22,1.308,1.308,0,0,1-.642-.716,4.484,4.484,0,0,1,0-2.629,1.313,1.313,0,0,1,.642-.717A2.67,2.67,0,0,1,131.365,144.257Zm0,.632a1.549,1.549,0,0,0-.734.146.819.819,0,0,0-.382.5,4.195,4.195,0,0,0,0,1.951.819.819,0,0,0,.382.5,1.55,1.55,0,0,0,.734.145,1.58,1.58,0,0,0,.739-.145.817.817,0,0,0,.386-.5,4.195,4.195,0,0,0,0-1.951.817.817,0,0,0-.386-.5A1.579,1.579,0,0,0,131.365,144.889Z" fill="#231f20"/>
      <path d="M135.181,144.362l.062.818.052.132v3.332h-.747v-4.282Zm1.969-.1a1.034,1.034,0,0,1,1.161,1.178v3.209h-.747v-3a.926.926,0,0,0-.141-.593.6.6,0,0,0-.475-.164,1.79,1.79,0,0,0-.791.194q-.4.194-.941.528l-.035-.536a4.716,4.716,0,0,1,.994-.6A2.409,2.409,0,0,1,137.15,144.257Z" fill="#231f20"/>
    </g>
    <g>
      <path d="M218.132,142.463a3.5,3.5,0,0,1,1.121.158,1.52,1.52,0,0,1,.738.523,2.417,2.417,0,0,1,.4.972,8.857,8.857,0,0,1,0,2.989,2.4,2.4,0,0,1-.4.972,1.52,1.52,0,0,1-.738.523,4.056,4.056,0,0,1-2.242,0,1.553,1.553,0,0,1-.743-.523,2.365,2.365,0,0,1-.409-.972,8.857,8.857,0,0,1,0-2.989,2.377,2.377,0,0,1,.409-.972,1.553,1.553,0,0,1,.743-.523A3.489,3.489,0,0,1,218.132,142.463Zm0,.695a1.7,1.7,0,0,0-.945.228,1.263,1.263,0,0,0-.493.761,7.438,7.438,0,0,0,0,2.923,1.264,1.264,0,0,0,.493.765,2.064,2.064,0,0,0,1.89,0,1.259,1.259,0,0,0,.492-.765,7.438,7.438,0,0,0,0-2.923,1.257,1.257,0,0,0-.492-.761A1.707,1.707,0,0,0,218.132,143.158Z" fill="#231f20"/>
      <path d="M222.476,144.362v3.007a.8.8,0,0,0,.148.572.7.7,0,0,0,.527.167,1.624,1.624,0,0,0,.717-.172,7.822,7.822,0,0,0,.858-.5l.1.519a4.4,4.4,0,0,1-.972.6,2.387,2.387,0,0,1-.953.2,1.037,1.037,0,0,1-1.17-1.178v-3.218Zm2.918,0v4.282h-.6l-.07-.809-.079-.132v-3.341Z" fill="#231f20"/>
      <path d="M229.2,144.362v.589h-2.883v-.545l.844-.044Zm-1.362-1.266v4.37a.6.6,0,0,0,.132.439.621.621,0,0,0,.449.132h.65l.088.572a3.2,3.2,0,0,1-.326.061c-.123.018-.242.031-.359.04s-.212.013-.282.013a1.071,1.071,0,0,1-.818-.3,1.212,1.212,0,0,1-.281-.862V143.1Z" fill="#231f20"/>
      <path d="M230.731,144.362l.079.888.052.115v2.743l-.035.1c.018.164.028.322.031.475s0,.313,0,.483v1.24h-.748v-6.049Zm1.836-.1a1.209,1.209,0,0,1,1.126.575,3.361,3.361,0,0,1,.343,1.693,3.959,3.959,0,0,1-.176,1.314,1.273,1.273,0,0,1-.531.7,1.764,1.764,0,0,1-.91.211,3.092,3.092,0,0,1-.832-.114,3.135,3.135,0,0,1-.795-.351l.044-.449c.275.076.519.139.729.189a2.891,2.891,0,0,0,.668.075,1.185,1.185,0,0,0,.6-.132.789.789,0,0,0,.33-.475,3.458,3.458,0,0,0,.106-.967,3.774,3.774,0,0,0-.1-.958.786.786,0,0,0-.854-.66,1.56,1.56,0,0,0-.693.168,5.09,5.09,0,0,0-.8.509l-.07-.5a2.583,2.583,0,0,1,.536-.44,2.675,2.675,0,0,1,.629-.285A2.176,2.176,0,0,1,232.567,144.257Z" fill="#231f20"/>
      <path d="M235.936,144.362v3.007a.8.8,0,0,0,.149.572.7.7,0,0,0,.527.167,1.627,1.627,0,0,0,.717-.172,8.013,8.013,0,0,0,.858-.5l.1.519a4.414,4.414,0,0,1-.971.6,2.4,2.4,0,0,1-.955.2,1.036,1.036,0,0,1-1.168-1.178v-3.218Zm2.919,0v4.282h-.6l-.07-.809-.08-.132v-3.341Z" fill="#231f20"/>
      <path d="M242.661,144.362v.589h-2.884v-.545l.845-.044ZM241.3,143.1v4.37a.6.6,0,0,0,.133.439.618.618,0,0,0,.448.132h.65l.088.572a3.23,3.23,0,0,1-.325.061c-.123.018-.243.031-.36.04s-.212.013-.283.013a1.068,1.068,0,0,1-.816-.3,1.212,1.212,0,0,1-.281-.862V143.1Z" fill="#231f20"/>
    </g>
    <g>
      <path d="M108.34,5.337a4.143,4.143,0,0,1,1.187.137,1.062,1.062,0,0,1,.637.478,1.955,1.955,0,0,1,.2.968,1.712,1.712,0,0,1-.242.993,1.021,1.021,0,0,1-.786.4v.035a1.172,1.172,0,0,1,.944.475,2.087,2.087,0,0,1,.268,1.143,1.987,1.987,0,0,1-.193.967,1.039,1.039,0,0,1-.62.48,3.811,3.811,0,0,1-1.121.135c-.345,0-.643,0-.892,0s-.479-.01-.69-.022-.431-.026-.659-.044l.123-.615c.129.006.373.011.734.017s.781.009,1.261.009a2.734,2.734,0,0,0,.761-.083.629.629,0,0,0,.4-.312,1.469,1.469,0,0,0,.118-.66,1.731,1.731,0,0,0-.123-.73.7.7,0,0,0-.413-.36,2.5,2.5,0,0,0-.791-.115h-1.952V8.036h1.943a2.521,2.521,0,0,0,.7-.091.618.618,0,0,0,.374-.309,1.406,1.406,0,0,0,.114-.628,1.32,1.32,0,0,0-.123-.633.64.64,0,0,0-.409-.3,3.02,3.02,0,0,0-.778-.08h-.774c-.229,0-.429,0-.6,0s-.318.01-.435.022l-.123-.615q.307-.036.584-.048t.607-.018C107.781,5.339,108.041,5.337,108.34,5.337Zm-1.213.071v6.066h-.756V5.408Z" fill="#231f20"/>
      <path d="M112.323,5.372a.2.2,0,0,1,.228.229v.5a.2.2,0,0,1-.228.228h-.352a.2.2,0,0,1-.229-.228V5.6a.2.2,0,0,1,.229-.229Zm.193,1.821v4.281h-.739V7.193Z" fill="#231f20"/>
      <path d="M117.062,8.836l-.009.564L115,9.409a.541.541,0,0,0-.431.162.665.665,0,0,0-.123.426v.273a.656.656,0,0,0,.158.488.712.712,0,0,0,.51.153,2.018,2.018,0,0,0,.559-.091,2.707,2.707,0,0,0,.628-.286,2.509,2.509,0,0,0,.58-.493V10.6a2.288,2.288,0,0,1-.277.286,2.907,2.907,0,0,1-.43.317,2.676,2.676,0,0,1-.554.254,2.048,2.048,0,0,1-.655.1,1.551,1.551,0,0,1-.668-.136,1.022,1.022,0,0,1-.453-.4,1.236,1.236,0,0,1-.163-.655V9.892A.982.982,0,0,1,114,9.114a1.268,1.268,0,0,1,.874-.278Zm-1.117-1.749a2.238,2.238,0,0,1,.8.127.938.938,0,0,1,.5.427,1.686,1.686,0,0,1,.167.817v3.016h-.589l-.114-.932-.053-.1V8.458a.755.755,0,0,0-.18-.566,1.017,1.017,0,0,0-.69-.172q-.335,0-.84.035t-1,.079l-.071-.553c.2-.036.418-.068.656-.1s.479-.053.725-.07S115.734,7.087,115.945,7.087Z" fill="#231f20"/>
      <path d="M120.173,7.087q.282,0,.6.018c.21.012.42.026.628.044s.4.041.576.07l-.061.545q-.405-.018-.814-.031t-.813-.013a4.692,4.692,0,0,0-.624.018.5.5,0,0,0-.33.14.585.585,0,0,0-.1.387.5.5,0,0,0,.158.439,1.428,1.428,0,0,0,.466.176l1.249.281a1.507,1.507,0,0,1,.751.379,1.128,1.128,0,0,1,.242.8,1.31,1.31,0,0,1-.2.791.978.978,0,0,1-.6.352,5.013,5.013,0,0,1-1.028.088q-.23,0-.682-.018a8.536,8.536,0,0,1-1-.105l.053-.545c.14.006.29.013.448.022s.324.013.5.013h.532a5.065,5.065,0,0,0,.756-.044.636.636,0,0,0,.387-.172.555.555,0,0,0,.114-.382.445.445,0,0,0-.185-.422,1.806,1.806,0,0,0-.492-.175l-1.231-.282a1.713,1.713,0,0,1-.562-.233.841.841,0,0,1-.308-.378,1.525,1.525,0,0,1-.1-.585,1.336,1.336,0,0,1,.176-.756.878.878,0,0,1,.545-.343A3.979,3.979,0,0,1,120.173,7.087Z" fill="#231f20"/>
    </g>
    <g>
      <path d="M7.286,142.577v6.067H6.512v-6.067Z" fill="#231f20"/>
      <path d="M9.369,144.362l.062.818.052.132v3.332H8.736v-4.282Zm1.969-.1a1.034,1.034,0,0,1,1.161,1.178v3.209h-.747v-3a.926.926,0,0,0-.141-.593.6.6,0,0,0-.475-.164,1.79,1.79,0,0,0-.791.194q-.4.194-.941.528l-.035-.536a4.716,4.716,0,0,1,.994-.6A2.409,2.409,0,0,1,11.338,144.257Z" fill="#231f20"/>
      <path d="M14.46,144.362l.079.888.053.115v2.743l-.035.1c.017.164.028.322.03.475s.005.313.005.483v1.24h-.748v-6.049Zm1.837-.1a1.21,1.21,0,0,1,1.126.575,3.372,3.372,0,0,1,.343,1.693,3.986,3.986,0,0,1-.176,1.314,1.27,1.27,0,0,1-.532.7,1.761,1.761,0,0,1-.91.211,3.066,3.066,0,0,1-1.626-.465l.043-.449q.414.114.73.189a2.891,2.891,0,0,0,.668.075,1.181,1.181,0,0,0,.6-.132.79.79,0,0,0,.331-.475,3.464,3.464,0,0,0,.105-.967,3.728,3.728,0,0,0-.1-.958.784.784,0,0,0-.853-.66,1.564,1.564,0,0,0-.694.168,5.087,5.087,0,0,0-.8.509l-.071-.5a2.589,2.589,0,0,1,.537-.44,2.686,2.686,0,0,1,.628-.285A2.177,2.177,0,0,1,16.3,144.257Z" fill="#231f20"/>
      <path d="M19.665,144.362v3.007a.8.8,0,0,0,.149.572.7.7,0,0,0,.527.167,1.627,1.627,0,0,0,.717-.172,8.112,8.112,0,0,0,.858-.5l.1.519a4.391,4.391,0,0,1-.971.6,2.4,2.4,0,0,1-.955.2,1.037,1.037,0,0,1-1.169-1.178v-3.218Zm2.919,0v4.282h-.6l-.07-.809-.08-.132v-3.341Z" fill="#231f20"/>
      <path d="M26.39,144.362v.589H23.506v-.545l.845-.044ZM25.027,143.1v4.37a.6.6,0,0,0,.132.439.623.623,0,0,0,.449.132h.65l.088.572a3.177,3.177,0,0,1-.325.061c-.123.018-.243.031-.36.04s-.212.013-.282.013a1.069,1.069,0,0,1-.817-.3,1.208,1.208,0,0,1-.282-.862V143.1Z" fill="#231f20"/>
    </g>
  </g>
</svg>
