<svg xmlns="http://www.w3.org/2000/svg" viewBox="0 0 248.972 156.342">
  <g>
    <g>
      <path d="M13.353,31.178v6.066H12.58V31.178Z" fill="#231f20"/>
      <path d="M15.437,32.963l.061.817.053.132v3.332H14.8V32.963Zm1.969-.106a1.033,1.033,0,0,1,1.16,1.178v3.209h-.747v-3a.926.926,0,0,0-.141-.593.6.6,0,0,0-.474-.163,1.784,1.784,0,0,0-.791.194q-.4.194-.941.527l-.035-.536a4.779,4.779,0,0,1,.993-.6A2.43,2.43,0,0,1,17.406,32.857Z" fill="#231f20"/>
      <path d="M20.527,32.963l.08.888.052.114v2.743l-.035.106c.018.164.028.322.031.474s0,.314,0,.484v1.239h-.747V32.963Zm1.838-.106a1.207,1.207,0,0,1,1.125.576,3.356,3.356,0,0,1,.343,1.693,3.994,3.994,0,0,1-.176,1.314,1.276,1.276,0,0,1-.531.7,1.775,1.775,0,0,1-.911.211,3.047,3.047,0,0,1-.831-.115,3.135,3.135,0,0,1-.8-.351l.044-.449q.413.115.729.19a2.956,2.956,0,0,0,.669.074,1.2,1.2,0,0,0,.6-.131.794.794,0,0,0,.33-.476,3.451,3.451,0,0,0,.105-.966,3.8,3.8,0,0,0-.1-.959.788.788,0,0,0-.853-.66,1.579,1.579,0,0,0-.7.168,5.075,5.075,0,0,0-.8.51l-.07-.5a2.583,2.583,0,0,1,.536-.44,2.719,2.719,0,0,1,.629-.286A2.21,2.21,0,0,1,22.365,32.857Z" fill="#231f20"/>
      <path d="M25.732,32.963v3.006a.8.8,0,0,0,.149.572.707.707,0,0,0,.528.167,1.646,1.646,0,0,0,.717-.171,8.48,8.48,0,0,0,.857-.5l.1.519a4.412,4.412,0,0,1-.972.6,2.4,2.4,0,0,1-.954.2,1.039,1.039,0,0,1-1.17-1.179V32.963Zm2.919,0v4.281h-.6l-.07-.809L27.9,36.3v-3.34Z" fill="#231f20"/>
      <path d="M32.458,32.963v.588H29.574v-.545l.844-.043ZM31.1,31.7v4.37a.606.606,0,0,0,.132.44.62.62,0,0,0,.448.132h.651l.088.571a3.234,3.234,0,0,1-.326.062q-.184.025-.36.039c-.118.009-.211.013-.282.013a1.068,1.068,0,0,1-.817-.3,1.211,1.211,0,0,1-.281-.862V31.7Z" fill="#231f20"/>
      <path d="M37.162,31.178v6.066h-.774V32.435c0-.088,0-.176.009-.263a1.832,1.832,0,0,1,.035-.265l-1.486.467L34.84,31.8l1.548-.624Z" fill="#231f20"/>
    </g>
    <g>
      <path d="M214.3,76.492a3.47,3.47,0,0,1,1.122.159,1.521,1.521,0,0,1,.738.522,2.446,2.446,0,0,1,.405.972,8.857,8.857,0,0,1,0,2.989,2.433,2.433,0,0,1-.405.972,1.523,1.523,0,0,1-.738.523,4.059,4.059,0,0,1-2.243,0,1.544,1.544,0,0,1-.742-.523,2.366,2.366,0,0,1-.41-.972,8.857,8.857,0,0,1,0-2.989,2.378,2.378,0,0,1,.41-.972,1.542,1.542,0,0,1,.742-.522A3.468,3.468,0,0,1,214.3,76.492Zm0,.695a1.707,1.707,0,0,0-.945.228,1.266,1.266,0,0,0-.492.761,7.438,7.438,0,0,0,0,2.923,1.264,1.264,0,0,0,.492.765,2.066,2.066,0,0,0,1.891,0,1.264,1.264,0,0,0,.492-.765,7.438,7.438,0,0,0,0-2.923,1.266,1.266,0,0,0-.492-.761A1.708,1.708,0,0,0,214.3,77.187Z" fill="#231f20"/>
      <path d="M218.641,78.391V81.4a.8.8,0,0,0,.149.572.7.7,0,0,0,.527.167,1.627,1.627,0,0,0,.717-.172,8.013,8.013,0,0,0,.858-.5l.1.519a4.391,4.391,0,0,1-.971.6,2.4,2.4,0,0,1-.954.2,1.037,1.037,0,0,1-1.17-1.178V78.391Zm2.919,0v4.282h-.6l-.07-.809-.08-.132V78.391Z" fill="#231f20"/>
      <path d="M225.366,78.391v.589h-2.884v-.545l.845-.044ZM224,77.125V81.5a.6.6,0,0,0,.132.439.615.615,0,0,0,.448.133h.65l.088.571A3.177,3.177,0,0,1,225,82.7c-.123.018-.243.031-.36.04s-.211.013-.281.013a1.071,1.071,0,0,1-.818-.3,1.212,1.212,0,0,1-.281-.862V77.125Z" fill="#231f20"/>
      <path d="M226.9,78.391l.079.888.052.115v2.743l-.035.105c.018.164.028.323.03.475s0,.313,0,.483v1.24h-.748V78.391Zm1.836-.105a1.209,1.209,0,0,1,1.126.575,3.361,3.361,0,0,1,.343,1.693,3.959,3.959,0,0,1-.176,1.314,1.272,1.272,0,0,1-.532.7,1.771,1.771,0,0,1-.91.21,3.085,3.085,0,0,1-.831-.114,3.135,3.135,0,0,1-.795-.351l.044-.449c.275.077.519.14.73.189a2.876,2.876,0,0,0,.667.075A1.185,1.185,0,0,0,229,82a.789.789,0,0,0,.33-.475,3.453,3.453,0,0,0,.106-.967,3.779,3.779,0,0,0-.1-.958.786.786,0,0,0-.854-.66,1.564,1.564,0,0,0-.694.168,5.181,5.181,0,0,0-.8.509l-.07-.5a2.648,2.648,0,0,1,.536-.44,2.675,2.675,0,0,1,.629-.285A2.176,2.176,0,0,1,228.733,78.286Z" fill="#231f20"/>
      <path d="M232.1,78.391V81.4a.8.8,0,0,0,.149.572.7.7,0,0,0,.527.167,1.627,1.627,0,0,0,.717-.172,8.112,8.112,0,0,0,.858-.5l.1.519a4.414,4.414,0,0,1-.971.6,2.4,2.4,0,0,1-.955.2,1.037,1.037,0,0,1-1.169-1.178V78.391Zm2.919,0v4.282h-.6l-.07-.809-.08-.132V78.391Z" fill="#231f20"/>
      <path d="M238.827,78.391v.589h-2.884v-.545l.844-.044Zm-1.363-1.266V81.5a.6.6,0,0,0,.132.439.616.616,0,0,0,.449.133h.65l.088.571a3.177,3.177,0,0,1-.325.061c-.123.018-.243.031-.36.04s-.212.013-.283.013a1.07,1.07,0,0,1-.817-.3,1.212,1.212,0,0,1-.281-.862V77.125Z" fill="#231f20"/>
    </g>
    <g>
      <path d="M12.632,53.892v6.067h-.773V53.892Z" fill="#231f20"/>
      <path d="M14.716,55.677l.061.818.053.132v3.332h-.747V55.677Zm1.969-.106a1.034,1.034,0,0,1,1.161,1.179v3.209H17.1v-3a.936.936,0,0,0-.141-.594.6.6,0,0,0-.475-.163,1.787,1.787,0,0,0-.791.194q-.4.193-.941.527l-.035-.536a4.71,4.71,0,0,1,.994-.6A2.411,2.411,0,0,1,16.685,55.571Z" fill="#231f20"/>
      <path d="M19.807,55.677l.079.888.053.114v2.743l-.036.106c.018.164.028.322.031.475s0,.313,0,.483v1.24h-.748V55.677Zm1.837-.106a1.208,1.208,0,0,1,1.126.576,3.368,3.368,0,0,1,.342,1.693,3.989,3.989,0,0,1-.175,1.314,1.274,1.274,0,0,1-.532.7,1.761,1.761,0,0,1-.91.211,3.079,3.079,0,0,1-.831-.114,3.129,3.129,0,0,1-.8-.352l.044-.448q.414.114.73.189a2.891,2.891,0,0,0,.668.075,1.181,1.181,0,0,0,.6-.132.791.791,0,0,0,.33-.475,3.42,3.42,0,0,0,.106-.967,3.788,3.788,0,0,0-.1-.959.786.786,0,0,0-.853-.659,1.573,1.573,0,0,0-.694.167,5.229,5.229,0,0,0-.8.51l-.07-.5a2.583,2.583,0,0,1,.536-.44A2.719,2.719,0,0,1,21,55.672,2.21,2.21,0,0,1,21.644,55.571Z" fill="#231f20"/>
      <path d="M25.011,55.677v3.007a.8.8,0,0,0,.15.572.7.7,0,0,0,.527.166,1.643,1.643,0,0,0,.717-.171,8.188,8.188,0,0,0,.857-.5l.1.519a4.4,4.4,0,0,1-.972.6,2.391,2.391,0,0,1-.954.2A1.038,1.038,0,0,1,24.264,58.9V55.677Zm2.919,0v4.282h-.6l-.071-.809-.079-.132V55.677Z" fill="#231f20"/>
      <path d="M31.737,55.677v.589H28.853v-.545l.844-.044Zm-1.363-1.266V58.78a.606.606,0,0,0,.132.44.621.621,0,0,0,.449.132h.65l.088.571a3.211,3.211,0,0,1-.325.062c-.123.018-.243.031-.361.04s-.211.013-.281.013a1.071,1.071,0,0,1-.818-.3,1.212,1.212,0,0,1-.281-.862V54.411Z" fill="#231f20"/>
      <path d="M36.309,53.787a4.513,4.513,0,0,1,1,.1,1.117,1.117,0,0,1,.642.378,1.325,1.325,0,0,1,.224.836,2.461,2.461,0,0,1-.1.712,2.632,2.632,0,0,1-.339.69,7.092,7.092,0,0,1-.642.8l-1.74,1.944c.152-.012.315-.021.487-.027s.339-.009.5-.009h2.057v.748H34.41v-.484a.617.617,0,0,1,.026-.18.434.434,0,0,1,.088-.154l1.759-1.987a6.1,6.1,0,0,0,.852-1.108,1.717,1.717,0,0,0,.255-.914.628.628,0,0,0-.145-.436.715.715,0,0,0-.387-.18,3.567,3.567,0,0,0-.6-.044c-.188,0-.366,0-.536.009s-.35.019-.541.04-.412.051-.664.092l-.053-.6c.276-.064.518-.113.726-.145s.4-.054.58-.066S36.127,53.787,36.309,53.787Z" fill="#231f20"/>
    </g>
    <g>
      <path d="M12.658,76.607v6.066h-.773V76.607Z" fill="#231f20"/>
      <path d="M14.742,78.391l.061.818.053.132v3.332h-.748V78.391Zm1.969-.105a1.034,1.034,0,0,1,1.161,1.178v3.209h-.747v-3a.925.925,0,0,0-.142-.593.594.594,0,0,0-.474-.163,1.8,1.8,0,0,0-.791.193q-.4.194-.941.528l-.035-.536a4.736,4.736,0,0,1,.993-.6A2.434,2.434,0,0,1,16.711,78.286Z" fill="#231f20"/>
      <path d="M19.833,78.391l.079.888.052.115v2.743l-.035.105c.018.164.028.323.031.475s0,.313,0,.483v1.24h-.747V78.391Zm1.837-.105a1.208,1.208,0,0,1,1.125.575,3.361,3.361,0,0,1,.343,1.693,3.959,3.959,0,0,1-.176,1.314,1.275,1.275,0,0,1-.531.7,1.774,1.774,0,0,1-.91.21,3.074,3.074,0,0,1-.831-.114,3.126,3.126,0,0,1-.8-.351l.044-.449c.275.077.519.14.73.189a2.891,2.891,0,0,0,.668.075,1.181,1.181,0,0,0,.6-.132.789.789,0,0,0,.33-.475,3.453,3.453,0,0,0,.106-.967,3.779,3.779,0,0,0-.1-.958.786.786,0,0,0-.853-.66,1.561,1.561,0,0,0-.694.168,5.136,5.136,0,0,0-.8.509l-.07-.5a2.648,2.648,0,0,1,.536-.44,2.675,2.675,0,0,1,.629-.285A2.177,2.177,0,0,1,21.67,78.286Z" fill="#231f20"/>
      <path d="M25.037,78.391V81.4a.793.793,0,0,0,.15.572.7.7,0,0,0,.527.167,1.634,1.634,0,0,0,.717-.172,8.013,8.013,0,0,0,.857-.5l.1.519a4.4,4.4,0,0,1-.972.6,2.391,2.391,0,0,1-.954.2,1.037,1.037,0,0,1-1.169-1.178V78.391Zm2.919,0v4.282h-.6l-.07-.809-.079-.132V78.391Z" fill="#231f20"/>
      <path d="M31.763,78.391v.589H28.879v-.545l.844-.044ZM30.4,77.125V81.5a.6.6,0,0,0,.132.439.616.616,0,0,0,.449.133h.65l.088.571a3.23,3.23,0,0,1-.325.061c-.123.018-.244.031-.361.04s-.211.013-.281.013a1.071,1.071,0,0,1-.818-.3,1.212,1.212,0,0,1-.281-.862V77.125Z" fill="#231f20"/>
      <path d="M36.221,76.492a3.707,3.707,0,0,1,1.076.128,1.047,1.047,0,0,1,.6.435,1.579,1.579,0,0,1,.193.844,2.946,2.946,0,0,1-.079.708,1.25,1.25,0,0,1-.268.536.935.935,0,0,1-.541.286v.035a1.065,1.065,0,0,1,.822.5,2.138,2.138,0,0,1,.233,1.024A2.351,2.351,0,0,1,38.085,82a1.194,1.194,0,0,1-.607.593,2.792,2.792,0,0,1-1.143.193c-.323,0-.646-.016-.972-.048s-.643-.069-.954-.11l.053-.624c.2.018.392.034.576.048s.368.025.549.031.367.009.554.009a2.307,2.307,0,0,0,.787-.11.764.764,0,0,0,.431-.374,1.537,1.537,0,0,0,.136-.7,1.7,1.7,0,0,0-.092-.585.727.727,0,0,0-.352-.391,1.628,1.628,0,0,0-.76-.141H35.166v-.606h1.125a1.42,1.42,0,0,0,.576-.1.749.749,0,0,0,.321-.251.851.851,0,0,0,.136-.351,2.733,2.733,0,0,0,.031-.409,1.2,1.2,0,0,0-.123-.576.587.587,0,0,0-.383-.255,3.209,3.209,0,0,0-.734-.066q-.431,0-.831.022c-.266.014-.5.031-.708.048l-.061-.6q.448-.079.866-.119C35.659,76.506,35.939,76.492,36.221,76.492Z" fill="#231f20"/>
    </g>
    <g>
      <path d="M12.4,99.412v6.066h-.773V99.412Z" fill="#231f20"/>
      <path d="M14.482,101.2l.062.818.053.132v3.332h-.748V101.2Zm1.97-.105a1.033,1.033,0,0,1,1.16,1.178v3.209h-.747v-3a.926.926,0,0,0-.141-.593.6.6,0,0,0-.474-.163,1.784,1.784,0,0,0-.791.194q-.4.193-.941.527l-.036-.536a4.785,4.785,0,0,1,.994-.6A2.427,2.427,0,0,1,16.452,101.091Z" fill="#231f20"/>
      <path d="M19.573,101.2l.079.889.053.114v2.743l-.035.105c.018.165.028.323.031.475s0,.314,0,.484v1.239h-.747V101.2Zm1.838-.105a1.207,1.207,0,0,1,1.125.576,3.356,3.356,0,0,1,.343,1.693,3.983,3.983,0,0,1-.176,1.313,1.272,1.272,0,0,1-.532.7,1.771,1.771,0,0,1-.91.211,3.047,3.047,0,0,1-.831-.115,3.135,3.135,0,0,1-.795-.351l.044-.449q.413.115.729.19a2.956,2.956,0,0,0,.669.074,1.184,1.184,0,0,0,.6-.132.789.789,0,0,0,.33-.475,3.451,3.451,0,0,0,.105-.966,3.789,3.789,0,0,0-.1-.959.788.788,0,0,0-.853-.66,1.565,1.565,0,0,0-.7.168,5.075,5.075,0,0,0-.8.51l-.07-.5a2.583,2.583,0,0,1,.536-.44,2.678,2.678,0,0,1,.629-.286A2.2,2.2,0,0,1,21.411,101.091Z" fill="#231f20"/>
      <path d="M24.778,101.2V104.2a.8.8,0,0,0,.149.572.707.707,0,0,0,.528.167,1.639,1.639,0,0,0,.716-.171,8.371,8.371,0,0,0,.858-.5l.1.519a4.412,4.412,0,0,1-.972.6,2.4,2.4,0,0,1-.954.2,1.037,1.037,0,0,1-1.17-1.178V101.2Zm2.919,0v4.282h-.6l-.07-.809-.08-.132V101.2Z" fill="#231f20"/>
      <path d="M31.5,101.2v.589H28.62v-.545l.844-.044ZM30.141,99.93v4.37a.6.6,0,0,0,.132.439.614.614,0,0,0,.448.133h.651l.088.571c-.094.023-.2.044-.326.062s-.243.03-.36.039-.211.013-.282.013a1.065,1.065,0,0,1-.817-.3,1.207,1.207,0,0,1-.281-.861V99.93Z" fill="#231f20"/>
      <path d="M36.594,99.412,34.9,103c-.053.117-.055.206-.005.268a.271.271,0,0,0,.224.093h3.6v.553l-.809.079H34.687a.623.623,0,0,1-.414-.14.637.637,0,0,1-.215-.361.7.7,0,0,1,.048-.44l1.723-3.639Zm1.337,1.16v4.906H37.2v-3.9l.132-1Z" fill="#231f20"/>
    </g>
    <g>
      <path d="M12.747,122.58v6.067h-.774V122.58Z" fill="#231f20"/>
      <path d="M14.83,124.365l.062.818.052.132v3.332H14.2v-4.282Zm1.969-.106a1.034,1.034,0,0,1,1.161,1.179v3.209h-.747v-3a.929.929,0,0,0-.141-.594.6.6,0,0,0-.475-.163,1.79,1.79,0,0,0-.791.194q-.4.194-.941.527l-.035-.536a4.71,4.71,0,0,1,.994-.6A2.411,2.411,0,0,1,16.8,124.259Z" fill="#231f20"/>
      <path d="M19.921,124.365l.079.888.053.114v2.743l-.035.106c.017.164.027.322.03.475s.005.313.005.483v1.24h-.748v-6.049Zm1.837-.106a1.208,1.208,0,0,1,1.126.576,3.367,3.367,0,0,1,.343,1.693,3.986,3.986,0,0,1-.176,1.314,1.27,1.27,0,0,1-.532.7,1.761,1.761,0,0,1-.91.211,3.085,3.085,0,0,1-.831-.114,3.129,3.129,0,0,1-.8-.352l.044-.448q.414.114.73.189a2.891,2.891,0,0,0,.668.075,1.181,1.181,0,0,0,.6-.132.8.8,0,0,0,.331-.475,3.464,3.464,0,0,0,.105-.967,3.742,3.742,0,0,0-.1-.959.784.784,0,0,0-.853-.659,1.573,1.573,0,0,0-.694.167,5.178,5.178,0,0,0-.8.51l-.071-.5a2.609,2.609,0,0,1,.536-.44,2.758,2.758,0,0,1,.629-.286A2.21,2.21,0,0,1,21.758,124.259Z" fill="#231f20"/>
      <path d="M25.126,124.365v3.007a.792.792,0,0,0,.149.571.7.7,0,0,0,.527.167,1.64,1.64,0,0,0,.717-.171,8.292,8.292,0,0,0,.858-.5l.1.519a4.391,4.391,0,0,1-.971.6,2.413,2.413,0,0,1-.955.2,1.038,1.038,0,0,1-1.169-1.178v-3.218Zm2.918,0v4.282h-.6l-.07-.809-.08-.132v-3.341Z" fill="#231f20"/>
      <path d="M31.851,124.365v.589H28.967v-.545l.845-.044ZM30.488,123.1v4.369a.606.606,0,0,0,.132.44.621.621,0,0,0,.449.132h.65l.088.571a3.211,3.211,0,0,1-.325.062c-.123.018-.243.031-.36.04s-.212.013-.282.013a1.067,1.067,0,0,1-.817-.3,1.208,1.208,0,0,1-.282-.862V123.1Z" fill="#231f20"/>
      <path d="M38.085,122.58l-.035.659H35.5l-.088,1.653.651.053a5.389,5.389,0,0,1,1.015.159,1.777,1.777,0,0,1,.682.334,1.24,1.24,0,0,1,.382.558,2.532,2.532,0,0,1,.119.831,3.326,3.326,0,0,1-.075.712,1.549,1.549,0,0,1-.281.615,1.4,1.4,0,0,1-.594.435,2.631,2.631,0,0,1-1.011.163,7.469,7.469,0,0,1-.835-.053,8.129,8.129,0,0,1-.967-.167l.088-.624c.275.047.551.085.826.115a6.967,6.967,0,0,0,.712.044,2.036,2.036,0,0,0,.871-.145.775.775,0,0,0,.4-.423,1.982,1.982,0,0,0,.114-.672,1.545,1.545,0,0,0-.1-.664.725.725,0,0,0-.351-.361,2.052,2.052,0,0,0-.642-.167q-.4-.048-.98-.083l-.405-.026a.345.345,0,0,1-.215-.11.3.3,0,0,1-.075-.233l.141-2.6Z" fill="#231f20"/>
    </g>
    <g>
      <path d="M114.459,10.555v6.067h-.773V10.555Zm2.893,2.489v.668h-2.963v-.668Zm.676-2.489v6.067h-.773V10.555Z" fill="#231f20"/>
      <path d="M120.06,10.52a.2.2,0,0,1,.228.229v.5a.2.2,0,0,1-.228.228h-.352a.2.2,0,0,1-.229-.228v-.5a.2.2,0,0,1,.229-.229Zm.193,1.82v4.282h-.739V12.34Z" fill="#231f20"/>
      <path d="M123.084,12.235a3.244,3.244,0,0,1,.835.109,3.059,3.059,0,0,1,.792.339l-.044.466c-.276-.082-.519-.146-.73-.194a3.175,3.175,0,0,0-.677-.07,1.2,1.2,0,0,0-.594.128.774.774,0,0,0-.33.47,3.506,3.506,0,0,0-.105.976,3.745,3.745,0,0,0,.1.984.822.822,0,0,0,.321.493,1.024,1.024,0,0,0,.563.141,1.505,1.505,0,0,0,.461-.066,1.892,1.892,0,0,0,.44-.216q.233-.15.55-.378l.07.528a3.583,3.583,0,0,1-.8.554,2.107,2.107,0,0,1-.968.228,1.243,1.243,0,0,1-1.155-.571,3.294,3.294,0,0,1-.348-1.688,3.994,3.994,0,0,1,.176-1.323,1.268,1.268,0,0,1,.536-.7A1.779,1.779,0,0,1,123.084,12.235Zm2.233-1.768v6.155h-.58l-.088-.748-.08-.061V12.876l.053-.132c-.023-.164-.038-.322-.044-.474s-.009-.314-.009-.484V10.467Z" fill="#231f20"/>
      <path d="M128.122,12.235a3.244,3.244,0,0,1,.835.109,3.059,3.059,0,0,1,.792.339l-.044.466c-.276-.082-.519-.146-.73-.194a3.175,3.175,0,0,0-.677-.07,1.2,1.2,0,0,0-.594.128.769.769,0,0,0-.329.47,3.462,3.462,0,0,0-.106.976,3.745,3.745,0,0,0,.1.984.826.826,0,0,0,.321.493,1.024,1.024,0,0,0,.563.141,1.505,1.505,0,0,0,.461-.066,1.873,1.873,0,0,0,.44-.216q.232-.15.55-.378l.07.528a3.583,3.583,0,0,1-.8.554,2.1,2.1,0,0,1-.968.228,1.243,1.243,0,0,1-1.155-.571,3.294,3.294,0,0,1-.348-1.688,4.02,4.02,0,0,1,.176-1.323,1.268,1.268,0,0,1,.536-.7A1.779,1.779,0,0,1,128.122,12.235Zm2.233-1.768v6.155h-.58l-.088-.748-.08-.061V12.876l.053-.132c-.023-.164-.038-.322-.044-.474s-.009-.314-.009-.484V10.467Z" fill="#231f20"/>
      <path d="M133.494,12.235a2.237,2.237,0,0,1,1.4.351,1.266,1.266,0,0,1,.435,1.046,1.4,1.4,0,0,1-.237.893.924.924,0,0,1-.783.321h-2.5v-.581h2.3a.371.371,0,0,0,.378-.2,1.071,1.071,0,0,0,.088-.436.7.7,0,0,0-.247-.588,1.389,1.389,0,0,0-.808-.177,1.64,1.64,0,0,0-.735.137.767.767,0,0,0-.377.475,3.157,3.157,0,0,0-.11.944,3.1,3.1,0,0,0,.136,1.047.826.826,0,0,0,.435.493,2,2,0,0,0,.791.131c.229,0,.479-.01.752-.03s.518-.046.734-.075l.079.5a2.623,2.623,0,0,1-.5.132q-.3.053-.607.079c-.208.017-.394.026-.558.026a2.674,2.674,0,0,1-1.187-.224,1.35,1.35,0,0,1-.655-.721,3.47,3.47,0,0,1-.207-1.314,3.487,3.487,0,0,1,.207-1.332,1.288,1.288,0,0,1,.642-.695A2.617,2.617,0,0,1,133.494,12.235Z" fill="#231f20"/>
      <path d="M137.089,12.34l.062.818.053.132v3.332h-.748V12.34Zm1.97-.105a1.033,1.033,0,0,1,1.16,1.178v3.209h-.747v-3a.931.931,0,0,0-.141-.594.6.6,0,0,0-.474-.163,1.791,1.791,0,0,0-.792.194q-.4.194-.94.528l-.036-.537a4.71,4.71,0,0,1,.994-.6A2.41,2.41,0,0,1,139.059,12.235Z" fill="#231f20"/>
      <path d="M113.232,19.481l-.008,4.976a.554.554,0,0,0,.154.426.6.6,0,0,0,.435.146h.413l.088.571a1.013,1.013,0,0,1-.224.062c-.1.017-.2.031-.3.039s-.189.013-.26.013a1.034,1.034,0,0,1-.76-.281,1.082,1.082,0,0,1-.286-.809V19.481Z" fill="#231f20"/>
      <path d="M118.227,23l-.009.563-2.049.008a.548.548,0,0,0-.431.163.667.667,0,0,0-.123.426v.273a.656.656,0,0,0,.158.488.712.712,0,0,0,.51.154,2.023,2.023,0,0,0,.559-.092,2.631,2.631,0,0,0,.628-.287,2.48,2.48,0,0,0,.58-.492v.554a2.222,2.222,0,0,1-.277.286,2.907,2.907,0,0,1-.43.317,2.676,2.676,0,0,1-.554.254,2.048,2.048,0,0,1-.655.1,1.551,1.551,0,0,1-.668-.136,1.027,1.027,0,0,1-.453-.4,1.236,1.236,0,0,1-.163-.655v-.466a.984.984,0,0,1,.313-.778,1.268,1.268,0,0,1,.874-.277Zm-1.117-1.75a2.237,2.237,0,0,1,.8.128.936.936,0,0,1,.5.426,1.679,1.679,0,0,1,.167.818v3.015h-.589l-.114-.932-.053-.1V22.62a.756.756,0,0,0-.18-.567,1.017,1.017,0,0,0-.69-.172q-.334,0-.84.035c-.337.024-.67.05-1,.08l-.07-.554q.3-.054.655-.1c.237-.029.479-.053.725-.07S116.9,21.248,117.11,21.248Z" fill="#231f20"/>
      <path d="M120.187,21.354l1.134,3.191c.029.088.058.175.088.259a2.176,2.176,0,0,1,.071.26h.2l-.246.571h-.229a.277.277,0,0,1-.163-.052.262.262,0,0,1-.1-.141l-1.556-4.088Zm3.525,0L122,25.873a3.629,3.629,0,0,1-.264.554,2.378,2.378,0,0,1-.382.5,1.787,1.787,0,0,1-1.226.523l-.071-.492a1.96,1.96,0,0,0,.8-.448,2.077,2.077,0,0,0,.448-.686l.212-.51c.047-.117.093-.246.14-.387s.091-.267.132-.378l1.117-3.191Z" fill="#231f20"/>
      <path d="M126.271,21.248a2.228,2.228,0,0,1,1.4.352,1.265,1.265,0,0,1,.435,1.046,1.4,1.4,0,0,1-.237.893.924.924,0,0,1-.783.321h-2.5v-.581h2.3a.37.37,0,0,0,.378-.2,1.054,1.054,0,0,0,.088-.435.707.707,0,0,0-.246-.589,1.4,1.4,0,0,0-.809-.176,1.636,1.636,0,0,0-.734.137.766.766,0,0,0-.378.474,3.2,3.2,0,0,0-.11.945,3.1,3.1,0,0,0,.136,1.047.824.824,0,0,0,.435.492,1.988,1.988,0,0,0,.792.132c.228,0,.479-.01.751-.031s.518-.045.735-.074l.079.5a2.742,2.742,0,0,1-.5.131q-.3.054-.607.079t-.558.027a2.674,2.674,0,0,1-1.187-.224,1.358,1.358,0,0,1-.655-.721,3.473,3.473,0,0,1-.207-1.314,3.487,3.487,0,0,1,.207-1.332,1.288,1.288,0,0,1,.642-.7A2.619,2.619,0,0,1,126.271,21.248Z" fill="#231f20"/>
      <path d="M129.814,21.354l.1.818.07.131v3.332h-.748V21.354Zm2.1-.106-.088.7h-.246a1.986,1.986,0,0,0-.756.155q-.378.153-.923.435l-.062-.466a4.471,4.471,0,0,1,.954-.607,2.216,2.216,0,0,1,.928-.22Z" fill="#231f20"/>
      <path d="M134.86,18.69l.1.36a2.6,2.6,0,0,0-1.279,1.385,6.383,6.383,0,0,0-.4,2.448,7.638,7.638,0,0,0,.176,1.732A3.613,3.613,0,0,0,134,25.9a2.68,2.68,0,0,0,.958.831l-.1.36a3.271,3.271,0,0,1-1.753-1.481,5.626,5.626,0,0,1-.559-2.713,5.672,5.672,0,0,1,.559-2.725A3.227,3.227,0,0,1,134.86,18.69Z" fill="#231f20"/>
      <path d="M136.935,21.248q.282,0,.6.018t.629.044c.208.017.4.041.576.07l-.062.545c-.27-.011-.541-.022-.813-.031s-.544-.013-.813-.013a4.895,4.895,0,0,0-.625.018.5.5,0,0,0-.329.141.578.578,0,0,0-.1.386.5.5,0,0,0,.158.44,1.442,1.442,0,0,0,.466.176l1.248.281a1.5,1.5,0,0,1,.752.378,1.132,1.132,0,0,1,.242.8,1.313,1.313,0,0,1-.2.792.98.98,0,0,1-.6.351,4.953,4.953,0,0,1-1.029.088q-.23,0-.681-.018a8.105,8.105,0,0,1-1-.1l.052-.545c.141.006.291.013.449.022s.324.013.5.013h.531a4.939,4.939,0,0,0,.757-.044.636.636,0,0,0,.386-.172.549.549,0,0,0,.115-.382.445.445,0,0,0-.185-.422,1.838,1.838,0,0,0-.492-.176l-1.231-.281a1.729,1.729,0,0,1-.563-.233.847.847,0,0,1-.308-.378,1.542,1.542,0,0,1-.1-.585,1.337,1.337,0,0,1,.175-.756.883.883,0,0,1,.546-.343A3.974,3.974,0,0,1,136.935,21.248Z" fill="#231f20"/>
      <path d="M139.221,18.69a3.228,3.228,0,0,1,1.763,1.477,5.672,5.672,0,0,1,.559,2.725,5.626,5.626,0,0,1-.559,2.713,3.272,3.272,0,0,1-1.763,1.481l-.088-.36a2.633,2.633,0,0,0,.954-.831,3.646,3.646,0,0,0,.541-1.28,7.7,7.7,0,0,0,.176-1.732,6.447,6.447,0,0,0-.4-2.448,2.584,2.584,0,0,0-1.275-1.385Z" fill="#231f20"/>
    </g>
    <g>
      <path d="M189.675,10.441a3.5,3.5,0,0,1,1.121.158,1.52,1.52,0,0,1,.738.523,2.411,2.411,0,0,1,.405.972,7.491,7.491,0,0,1,.127,1.5,7.48,7.48,0,0,1-.127,1.494,2.411,2.411,0,0,1-.405.972,1.52,1.52,0,0,1-.738.523,4.056,4.056,0,0,1-2.242,0,1.553,1.553,0,0,1-.743-.523,2.371,2.371,0,0,1-.409-.972,7.4,7.4,0,0,1-.128-1.494,7.409,7.409,0,0,1,.128-1.5,2.371,2.371,0,0,1,.409-.972,1.553,1.553,0,0,1,.743-.523A3.489,3.489,0,0,1,189.675,10.441Zm0,.694a1.7,1.7,0,0,0-.945.229,1.263,1.263,0,0,0-.493.761,5.838,5.838,0,0,0-.145,1.464,5.849,5.849,0,0,0,.145,1.459,1.267,1.267,0,0,0,.493.765,2.064,2.064,0,0,0,1.89,0,1.262,1.262,0,0,0,.492-.765,5.8,5.8,0,0,0,.145-1.459,5.791,5.791,0,0,0-.145-1.464,1.257,1.257,0,0,0-.492-.761A1.707,1.707,0,0,0,189.675,11.135Z" fill="#231f20"/>
      <path d="M194.018,12.34v3.007a.8.8,0,0,0,.15.572.7.7,0,0,0,.527.167,1.648,1.648,0,0,0,.717-.172,8.188,8.188,0,0,0,.857-.5l.1.519a4.4,4.4,0,0,1-.972.6,2.391,2.391,0,0,1-.954.2,1.038,1.038,0,0,1-1.169-1.178V12.34Zm2.919,0v4.282h-.6l-.07-.809-.079-.132V12.34Z" fill="#231f20"/>
      <path d="M200.744,12.34v.589H197.86v-.545l.844-.044Zm-1.363-1.266v4.369a.606.606,0,0,0,.132.44.62.62,0,0,0,.448.132h.651l.088.572a3.23,3.23,0,0,1-.325.061c-.123.018-.244.031-.361.04s-.211.013-.282.013a1.07,1.07,0,0,1-.817-.3,1.212,1.212,0,0,1-.281-.862V11.074Z" fill="#231f20"/>
      <path d="M202.273,12.34l.08.888.052.114v2.744l-.035.105c.018.164.028.322.031.475s0,.313,0,.483v1.24h-.747V12.34Zm1.838-.105a1.206,1.206,0,0,1,1.125.575,3.356,3.356,0,0,1,.343,1.693,3.959,3.959,0,0,1-.176,1.314,1.269,1.269,0,0,1-.531.7,1.765,1.765,0,0,1-.911.211,3.055,3.055,0,0,1-1.626-.466l.044-.448c.275.076.519.139.729.189a2.906,2.906,0,0,0,.669.075,1.181,1.181,0,0,0,.6-.132.792.792,0,0,0,.33-.475,3.458,3.458,0,0,0,.106-.967,3.774,3.774,0,0,0-.1-.958.786.786,0,0,0-.853-.66,1.578,1.578,0,0,0-.7.167,5.226,5.226,0,0,0-.8.51l-.07-.5a2.583,2.583,0,0,1,.536-.44,2.675,2.675,0,0,1,.629-.285A2.177,2.177,0,0,1,204.111,12.235Z" fill="#231f20"/>
      <path d="M207.479,12.34v3.007a.8.8,0,0,0,.149.572.7.7,0,0,0,.527.167,1.641,1.641,0,0,0,.717-.172,8.292,8.292,0,0,0,.858-.5l.1.519a4.391,4.391,0,0,1-.971.6,2.4,2.4,0,0,1-.955.2,1.038,1.038,0,0,1-1.169-1.178V12.34Zm2.919,0v4.282h-.6l-.07-.809-.08-.132V12.34Z" fill="#231f20"/>
      <path d="M214.2,12.34v.589H211.32v-.545l.845-.044Zm-1.363-1.266v4.369a.606.606,0,0,0,.132.44.623.623,0,0,0,.449.132h.65l.088.572a3.23,3.23,0,0,1-.325.061c-.123.018-.243.031-.36.04s-.212.013-.282.013a1.069,1.069,0,0,1-.817-.3,1.208,1.208,0,0,1-.282-.862V11.074Z" fill="#231f20"/>
      <path d="M191.978,19.481l-.009,4.976a.558.558,0,0,0,.154.426.606.606,0,0,0,.435.146h.414l.088.571a1.03,1.03,0,0,1-.224.062c-.1.017-.2.031-.3.039s-.189.013-.259.013a1.034,1.034,0,0,1-.76-.281,1.082,1.082,0,0,1-.286-.809V19.481Z" fill="#231f20"/>
      <path d="M196.972,23l-.009.563-2.048.008a.548.548,0,0,0-.431.163.667.667,0,0,0-.123.426v.273a.656.656,0,0,0,.158.488.71.71,0,0,0,.51.154,2.01,2.01,0,0,0,.558-.092,2.637,2.637,0,0,0,.629-.287,2.5,2.5,0,0,0,.58-.492v.554a2.292,2.292,0,0,1-.277.286,2.919,2.919,0,0,1-.431.317,2.667,2.667,0,0,1-.553.254,2.05,2.05,0,0,1-.656.1,1.557,1.557,0,0,1-.668-.136,1.033,1.033,0,0,1-.453-.4,1.245,1.245,0,0,1-.162-.655v-.466a.987.987,0,0,1,.312-.778,1.272,1.272,0,0,1,.875-.277Zm-1.116-1.75a2.237,2.237,0,0,1,.8.128.94.94,0,0,1,.5.426,1.691,1.691,0,0,1,.167.818v3.015h-.59l-.114-.932-.053-.1V22.62a.756.756,0,0,0-.18-.567,1.017,1.017,0,0,0-.69-.172q-.335,0-.84.035c-.336.024-.669.05-1,.08l-.07-.554c.2-.036.418-.068.655-.1s.479-.053.725-.07S195.645,21.248,195.856,21.248Z" fill="#231f20"/>
      <path d="M198.933,21.354l1.133,3.191c.03.088.059.175.088.259a1.855,1.855,0,0,1,.071.26h.2l-.246.571h-.229a.274.274,0,0,1-.162-.052.257.257,0,0,1-.1-.141l-1.557-4.088Zm3.525,0-1.714,4.519a3.726,3.726,0,0,1-.264.554,2.383,2.383,0,0,1-.383.5,1.781,1.781,0,0,1-1.226.523l-.07-.492a1.967,1.967,0,0,0,.8-.448,2.092,2.092,0,0,0,.448-.686l.211-.51q.07-.175.141-.387t.132-.378l1.116-3.191Z" fill="#231f20"/>
      <path d="M205.017,21.248a2.232,2.232,0,0,1,1.4.352,1.265,1.265,0,0,1,.435,1.046,1.4,1.4,0,0,1-.237.893.925.925,0,0,1-.783.321h-2.5v-.581h2.3a.37.37,0,0,0,.378-.2,1.07,1.07,0,0,0,.088-.435.7.7,0,0,0-.247-.589,1.4,1.4,0,0,0-.808-.176,1.64,1.64,0,0,0-.735.137.768.768,0,0,0-.377.474,3.169,3.169,0,0,0-.11.945,3.1,3.1,0,0,0,.136,1.047.824.824,0,0,0,.435.492,1.983,1.983,0,0,0,.791.132c.229,0,.479-.01.752-.031s.517-.045.734-.074l.079.5a2.707,2.707,0,0,1-.5.131q-.3.054-.607.079t-.558.027a2.674,2.674,0,0,1-1.187-.224,1.359,1.359,0,0,1-.656-.721,3.5,3.5,0,0,1-.206-1.314,3.508,3.508,0,0,1,.206-1.332,1.29,1.29,0,0,1,.643-.7A2.616,2.616,0,0,1,205.017,21.248Z" fill="#231f20"/>
      <path d="M208.56,21.354l.1.818.071.131v3.332h-.748V21.354Zm2.1-.106-.088.7h-.246a1.986,1.986,0,0,0-.756.155q-.379.153-.923.435l-.062-.466a4.422,4.422,0,0,1,.954-.607,2.212,2.212,0,0,1,.927-.22Z" fill="#231f20"/>
    </g>
    <g>
      <path d="M44.305,10.555v6.067h-.773V10.555Z" fill="#231f20"/>
      <path d="M46.389,12.34l.061.818.053.132v3.332h-.748V12.34Zm1.969-.105a1.034,1.034,0,0,1,1.161,1.178v3.209h-.747v-3a.931.931,0,0,0-.142-.594.6.6,0,0,0-.474-.163,1.784,1.784,0,0,0-.791.194q-.4.194-.941.528l-.035-.537a4.73,4.73,0,0,1,.993-.6A2.417,2.417,0,0,1,48.358,12.235Z" fill="#231f20"/>
      <path d="M51.48,12.34l.079.888.052.114v2.744l-.035.105c.018.164.028.322.031.475s0,.313,0,.483v1.24h-.747V12.34Zm1.837-.105a1.206,1.206,0,0,1,1.125.575,3.356,3.356,0,0,1,.343,1.693,3.959,3.959,0,0,1-.176,1.314,1.269,1.269,0,0,1-.531.7,1.764,1.764,0,0,1-.91.211,3.055,3.055,0,0,1-1.627-.466l.044-.448c.275.076.519.139.73.189a2.891,2.891,0,0,0,.668.075,1.181,1.181,0,0,0,.6-.132.792.792,0,0,0,.33-.475,3.458,3.458,0,0,0,.106-.967,3.774,3.774,0,0,0-.1-.958.786.786,0,0,0-.853-.66,1.57,1.57,0,0,0-.694.167,5.229,5.229,0,0,0-.8.51l-.07-.5a2.583,2.583,0,0,1,.536-.44,2.675,2.675,0,0,1,.629-.285A2.177,2.177,0,0,1,53.317,12.235Z" fill="#231f20"/>
      <path d="M56.684,12.34v3.007a.8.8,0,0,0,.15.572.7.7,0,0,0,.527.167,1.648,1.648,0,0,0,.717-.172,8.188,8.188,0,0,0,.857-.5l.1.519a4.4,4.4,0,0,1-.972.6,2.391,2.391,0,0,1-.954.2,1.038,1.038,0,0,1-1.169-1.178V12.34Zm2.919,0v4.282h-.6l-.07-.809-.079-.132V12.34Z" fill="#231f20"/>
      <path d="M63.41,12.34v.589H60.526v-.545l.844-.044Zm-1.363-1.266v4.369a.606.606,0,0,0,.132.44.621.621,0,0,0,.449.132h.65l.088.572a3.23,3.23,0,0,1-.325.061c-.123.018-.244.031-.361.04s-.211.013-.282.013a1.07,1.07,0,0,1-.817-.3,1.212,1.212,0,0,1-.281-.862V11.074Z" fill="#231f20"/>
      <path d="M44.6,19.481l-.009,4.976a.558.558,0,0,0,.154.426.606.606,0,0,0,.435.146h.414l.088.571a1.03,1.03,0,0,1-.224.062c-.1.017-.2.031-.3.039s-.189.013-.259.013a1.034,1.034,0,0,1-.76-.281,1.082,1.082,0,0,1-.286-.809V19.481Z" fill="#231f20"/>
      <path d="M49.589,23l-.008.563-2.049.008a.548.548,0,0,0-.431.163.667.667,0,0,0-.123.426v.273a.656.656,0,0,0,.158.488.712.712,0,0,0,.51.154,2.023,2.023,0,0,0,.559-.092,2.631,2.631,0,0,0,.628-.287,2.5,2.5,0,0,0,.58-.492v.554a2.292,2.292,0,0,1-.277.286,2.907,2.907,0,0,1-.43.317,2.676,2.676,0,0,1-.554.254,2.048,2.048,0,0,1-.655.1,1.551,1.551,0,0,1-.668-.136,1.022,1.022,0,0,1-.453-.4,1.236,1.236,0,0,1-.163-.655v-.466a.987.987,0,0,1,.312-.778A1.272,1.272,0,0,1,47.4,23Zm-1.116-1.75a2.237,2.237,0,0,1,.8.128.936.936,0,0,1,.5.426,1.691,1.691,0,0,1,.167.818v3.015h-.589l-.115-.932-.052-.1V22.62A.752.752,0,0,0,49,22.053a1.016,1.016,0,0,0-.689-.172c-.224,0-.5.012-.84.035s-.67.05-1,.08l-.071-.554c.2-.036.418-.068.656-.1s.479-.053.725-.07S48.262,21.248,48.473,21.248Z" fill="#231f20"/>
      <path d="M51.55,21.354l1.134,3.191c.029.088.058.175.088.259a2,2,0,0,1,.07.26h.2l-.246.571h-.229a.276.276,0,0,1-.162-.052.257.257,0,0,1-.1-.141L50.75,21.354Zm3.525,0-1.714,4.519a3.629,3.629,0,0,1-.264.554,2.383,2.383,0,0,1-.383.5,1.781,1.781,0,0,1-1.226.523l-.07-.492a1.967,1.967,0,0,0,.8-.448,2.092,2.092,0,0,0,.448-.686l.212-.51c.046-.117.093-.246.14-.387s.091-.267.132-.378l1.117-3.191Z" fill="#231f20"/>
      <path d="M57.634,21.248a2.23,2.23,0,0,1,1.4.352,1.265,1.265,0,0,1,.435,1.046,1.4,1.4,0,0,1-.237.893.924.924,0,0,1-.783.321h-2.5v-.581h2.3a.37.37,0,0,0,.378-.2,1.07,1.07,0,0,0,.088-.435.707.707,0,0,0-.246-.589,1.4,1.4,0,0,0-.809-.176,1.633,1.633,0,0,0-.734.137.766.766,0,0,0-.378.474,3.169,3.169,0,0,0-.11.945,3.1,3.1,0,0,0,.136,1.047.824.824,0,0,0,.435.492,1.985,1.985,0,0,0,.792.132c.228,0,.479-.01.751-.031s.518-.045.734-.074l.08.5a2.742,2.742,0,0,1-.5.131q-.3.054-.607.079t-.558.027a2.674,2.674,0,0,1-1.187-.224,1.354,1.354,0,0,1-.655-.721,3.473,3.473,0,0,1-.207-1.314,3.487,3.487,0,0,1,.207-1.332,1.284,1.284,0,0,1,.642-.7A2.616,2.616,0,0,1,57.634,21.248Z" fill="#231f20"/>
      <path d="M61.177,21.354l.1.818.071.131v3.332H60.6V21.354Zm2.1-.106-.088.7h-.246a1.986,1.986,0,0,0-.756.155q-.378.153-.923.435l-.062-.466a4.446,4.446,0,0,1,.954-.607,2.216,2.216,0,0,1,.928-.22Z" fill="#231f20"/>
    </g>
    <circle cx="51.363" cy="42.629" r="8.299" fill="none" stroke="#231f20" stroke-miterlimit="10" stroke-width="0.75"/>
    <circle cx="51.363" cy="65.399" r="8.299" fill="none" stroke="#231f20" stroke-miterlimit="10" stroke-width="0.75"/>
    <circle cx="125.496" cy="53.334" r="8.299" fill="none" stroke="#231f20" stroke-miterlimit="10" stroke-width="0.75"/>
    <circle cx="125.496" cy="88.168" r="8.299" fill="none" stroke="#231f20" stroke-miterlimit="10" stroke-width="0.75"/>
    <circle cx="198.839" cy="88.168" r="8.299" fill="none" stroke="#231f20" stroke-miterlimit="10" stroke-width="0.75"/>
    <circle cx="125.496" cy="122.347" r="8.299" fill="none" stroke="#231f20" stroke-miterlimit="10" stroke-width="0.75"/>
    <circle cx="51.363" cy="88.168" r="8.299" fill="none" stroke="#231f20" stroke-miterlimit="10" stroke-width="0.75"/>
    <circle cx="51.363" cy="110.938" r="8.299" fill="none" stroke="#231f20" stroke-miterlimit="10" stroke-width="0.75"/>
    <circle cx="51.363" cy="133.707" r="8.299" fill="none" stroke="#231f20" stroke-miterlimit="10" stroke-width="0.75"/>
    <g>
      <line x1="26.4" y1="42.629" x2="40.801" y2="42.629" fill="none" stroke="#231f20" stroke-miterlimit="10" stroke-width="0.75"/>
      <g>
        <path d="M26.48,44.039a1.41,1.41,0,1,1,1.41-1.41A1.411,1.411,0,0,1,26.48,44.039Z" fill="#fff"/>
        <path d="M26.48,44.226a1.6,1.6,0,1,0-1.6-1.6,1.6,1.6,0,0,0,1.6,1.6Zm0-2.819a1.222,1.222,0,1,1-1.222,1.222,1.224,1.224,0,0,1,1.222-1.222Z" fill="#231f20"/>
      </g>
      <path d="M43.064,42.629a11.328,11.328,0,0,0-3.2,1.783l.645-1.783-.645-1.783A11.328,11.328,0,0,0,43.064,42.629Z" fill="#231f20"/>
    </g>
    <g>
      <line x1="207.139" y1="88.168" x2="228.881" y2="88.168" fill="none" stroke="#231f20" stroke-miterlimit="10" stroke-width="0.75"/>
      <path d="M231.144,88.168a11.331,11.331,0,0,0-3.205,1.784l.645-1.784-.645-1.783A11.328,11.328,0,0,0,231.144,88.168Z" fill="#231f20"/>
    </g>
    <g>
      <line x1="59.663" y1="42.629" x2="114.962" y2="51.513" fill="none" stroke="#231f20" stroke-miterlimit="10" stroke-width="0.75"/>
      <path d="M117.2,51.872a11.326,11.326,0,0,0-3.448,1.252l.92-1.658-.354-1.863A11.321,11.321,0,0,0,117.2,51.872Z" fill="#231f20"/>
    </g>
    <g>
      <line x1="59.663" y1="64.387" x2="114.967" y2="54.763" fill="none" stroke="#231f20" stroke-miterlimit="10" stroke-width="0.75"/>
      <path d="M117.2,54.375a11.314,11.314,0,0,0-2.852,2.306l.329-1.867-.941-1.646A11.315,11.315,0,0,0,117.2,54.375Z" fill="#231f20"/>
    </g>
    <g>
      <line x1="59.519" y1="67.343" x2="115.213" y2="85.073" fill="none" stroke="#231f20" stroke-miterlimit="10" stroke-width="0.75"/>
      <path d="M117.37,85.76a11.328,11.328,0,0,0-3.6.727l1.156-1.5-.074-1.9A11.327,11.327,0,0,0,117.37,85.76Z" fill="#231f20"/>
    </g>
    <g>
      <line x1="58.261" y1="70.014" x2="117.604" y2="114.732" fill="none" stroke="#231f20" stroke-miterlimit="10" stroke-width="0.75"/>
      <path d="M119.411,116.094a11.3,11.3,0,0,0-3.633-.5l1.588-1.036.558-1.812A11.35,11.35,0,0,0,119.411,116.094Z" fill="#231f20"/>
    </g>
    <g>
      <line x1="58.902" y1="84.713" x2="115.646" y2="57.858" fill="none" stroke="#231f20" stroke-miterlimit="10" stroke-width="0.75"/>
      <path d="M117.692,56.89a11.343,11.343,0,0,0-2.134,2.983l-.18-1.888-1.346-1.335A11.32,11.32,0,0,0,117.692,56.89Z" fill="#231f20"/>
    </g>
    <g>
      <line x1="59.663" y1="88.168" x2="114.933" y2="88.168" fill="none" stroke="#231f20" stroke-miterlimit="10" stroke-width="0.75"/>
      <path d="M117.2,88.168a11.337,11.337,0,0,0-3.206,1.784l.645-1.784-.645-1.783A11.334,11.334,0,0,0,117.2,88.168Z" fill="#231f20"/>
    </g>
    <g>
      <line x1="58.674" y1="91.321" x2="116.099" y2="117.022" fill="none" stroke="#231f20" stroke-miterlimit="10" stroke-width="0.75"/>
      <path d="M118.165,117.947a11.321,11.321,0,0,0-3.654.318l1.317-1.364.14-1.891A11.338,11.338,0,0,0,118.165,117.947Z" fill="#231f20"/>
    </g>
    <g>
      <line x1="58.128" y1="105.986" x2="117.424" y2="60.481" fill="none" stroke="#231f20" stroke-miterlimit="10" stroke-width="0.75"/>
      <path d="M119.219,59.1a11.337,11.337,0,0,0-1.457,3.367l-.574-1.808-1.6-1.022A11.292,11.292,0,0,0,119.219,59.1Z" fill="#231f20"/>
    </g>
    <g>
      <line x1="59.423" y1="108.43" x2="115.035" y2="91.188" fill="none" stroke="#231f20" stroke-miterlimit="10" stroke-width="0.75"/>
      <path d="M117.2,90.518a11.321,11.321,0,0,0-2.534,2.653l.088-1.9-1.144-1.512A11.323,11.323,0,0,0,117.2,90.518Z" fill="#231f20"/>
    </g>
    <g>
      <line x1="59.663" y1="110.938" x2="114.963" y2="119.972" fill="none" stroke="#231f20" stroke-miterlimit="10" stroke-width="0.75"/>
      <path d="M117.2,120.337a11.338,11.338,0,0,0-3.451,1.243l.924-1.656-.349-1.864A11.3,11.3,0,0,0,117.2,120.337Z" fill="#231f20"/>
    </g>
    <g>
      <line x1="57.039" y1="127.321" x2="119.735" y2="62.48" fill="none" stroke="#231f20" stroke-miterlimit="10" stroke-width="0.75"/>
      <path d="M121.308,60.853a11.347,11.347,0,0,0-.946,3.544l-.833-1.7-1.731-.776A11.288,11.288,0,0,0,121.308,60.853Z" fill="#231f20"/>
    </g>
    <g>
      <line x1="58.333" y1="129.671" x2="116.385" y2="94.233" fill="none" stroke="#231f20" stroke-miterlimit="10" stroke-width="0.75"/>
      <path d="M118.317,93.054a11.333,11.333,0,0,0-1.806,3.192l-.379-1.858-1.48-1.186A11.316,11.316,0,0,0,118.317,93.054Z" fill="#231f20"/>
    </g>
    <g>
      <line x1="59.663" y1="132.109" x2="114.701" y2="122.972" fill="none" stroke="#231f20" stroke-miterlimit="10" stroke-width="0.75"/>
      <path d="M116.934,122.6a11.341,11.341,0,0,0-2.87,2.285l.344-1.865-.928-1.654A11.307,11.307,0,0,0,116.934,122.6Z" fill="#231f20"/>
    </g>
    <g>
      <line x1="59.006" y1="45.871" x2="116.709" y2="81.933" fill="none" stroke="#231f20" stroke-miterlimit="10" stroke-width="0.75"/>
      <path d="M118.628,83.133a11.333,11.333,0,0,0-3.664-.187l1.493-1.17.4-1.854A11.311,11.311,0,0,0,118.628,83.133Z" fill="#231f20"/>
    </g>
    <g>
      <line x1="57.111" y1="48.617" x2="119.876" y2="113.163" fill="none" stroke="#231f20" stroke-miterlimit="10" stroke-width="0.75"/>
      <path d="M121.454,114.786a11.353,11.353,0,0,0-3.513-1.055l1.728-.78.829-1.706A11.335,11.335,0,0,0,121.454,114.786Z" fill="#231f20"/>
    </g>
    <g>
      <line x1="132.732" y1="57.196" x2="188.991" y2="83.612" fill="none" stroke="#231f20" stroke-miterlimit="10" stroke-width="0.75"/>
      <path d="M191.039,84.574a11.31,11.31,0,0,0-3.659.252l1.342-1.34L188.9,81.6A11.324,11.324,0,0,0,191.039,84.574Z" fill="#231f20"/>
    </g>
    <g>
      <line x1="133.796" y1="88.168" x2="188.276" y2="88.168" fill="none" stroke="#231f20" stroke-miterlimit="10" stroke-width="0.75"/>
      <path d="M190.54,88.168a11.337,11.337,0,0,0-3.206,1.784l.645-1.784-.645-1.783A11.334,11.334,0,0,0,190.54,88.168Z" fill="#231f20"/>
    </g>
    <g>
      <line x1="133.063" y1="118.949" x2="188.978" y2="92.621" fill="none" stroke="#231f20" stroke-miterlimit="10" stroke-width="0.75"/>
      <path d="M191.026,91.657a11.315,11.315,0,0,0-2.14,2.979l-.177-1.888-1.343-1.339A11.344,11.344,0,0,0,191.026,91.657Z" fill="#231f20"/>
    </g>
    <g>
      <line x1="26.4" y1="65.399" x2="40.801" y2="65.399" fill="none" stroke="#231f20" stroke-miterlimit="10" stroke-width="0.75"/>
      <g>
        <path d="M26.48,66.808A1.41,1.41,0,1,1,27.89,65.4,1.41,1.41,0,0,1,26.48,66.808Z" fill="#fff"/>
        <path d="M26.48,67a1.6,1.6,0,1,0-1.6-1.6,1.6,1.6,0,0,0,1.6,1.6Zm0-2.82A1.223,1.223,0,1,1,25.258,65.4a1.224,1.224,0,0,1,1.222-1.223Z" fill="#231f20"/>
      </g>
      <path d="M43.064,65.4a11.328,11.328,0,0,0-3.2,1.783L40.5,65.4l-.645-1.784A11.307,11.307,0,0,0,43.064,65.4Z" fill="#231f20"/>
    </g>
    <g>
      <line x1="26.4" y1="88.168" x2="40.801" y2="88.168" fill="none" stroke="#231f20" stroke-miterlimit="10" stroke-width="0.75"/>
      <g>
        <path d="M26.48,89.578a1.41,1.41,0,1,1,1.41-1.41A1.41,1.41,0,0,1,26.48,89.578Z" fill="#fff"/>
        <path d="M26.48,89.766a1.6,1.6,0,1,0-1.6-1.6,1.6,1.6,0,0,0,1.6,1.6Zm0-2.82a1.223,1.223,0,1,1-1.222,1.222,1.224,1.224,0,0,1,1.222-1.222Z" fill="#231f20"/>
      </g>
      <path d="M43.064,88.168a11.307,11.307,0,0,0-3.2,1.784l.645-1.784-.645-1.783A11.328,11.328,0,0,0,43.064,88.168Z" fill="#231f20"/>
    </g>
    <g>
      <line x1="26.4" y1="110.938" x2="40.801" y2="110.938" fill="none" stroke="#231f20" stroke-miterlimit="10" stroke-width="0.75"/>
      <g>
        <path d="M26.48,112.348a1.41,1.41,0,1,1,1.41-1.41A1.411,1.411,0,0,1,26.48,112.348Z" fill="#fff"/>
        <path d="M26.48,112.535a1.6,1.6,0,1,0-1.6-1.6,1.6,1.6,0,0,0,1.6,1.6Zm0-2.82a1.223,1.223,0,1,1-1.222,1.223,1.225,1.225,0,0,1,1.222-1.223Z" fill="#231f20"/>
      </g>
      <path d="M43.064,110.938a11.328,11.328,0,0,0-3.2,1.783l.645-1.783-.645-1.783A11.328,11.328,0,0,0,43.064,110.938Z" fill="#231f20"/>
    </g>
    <g>
      <line x1="26.4" y1="133.707" x2="40.801" y2="133.707" fill="none" stroke="#231f20" stroke-miterlimit="10" stroke-width="0.75"/>
      <g>
        <path d="M26.48,135.117a1.41,1.41,0,1,1,1.41-1.41A1.41,1.41,0,0,1,26.48,135.117Z" fill="#fff"/>
        <path d="M26.48,135.305a1.6,1.6,0,1,0-1.6-1.6,1.6,1.6,0,0,0,1.6,1.6Zm0-2.82a1.223,1.223,0,1,1-1.222,1.222,1.224,1.224,0,0,1,1.222-1.222Z" fill="#231f20"/>
      </g>
      <path d="M43.064,133.707a11.356,11.356,0,0,0-3.2,1.784l.645-1.784-.645-1.783A11.3,11.3,0,0,0,43.064,133.707Z" fill="#231f20"/>
    </g>
  </g>
</svg>
